<?xml version="1.0" encoding="UTF-8" standalone="no"?>
<!DOCTYPE svg PUBLIC "-//W3C//DTD SVG 1.1//EN" "http://www.w3.org/Graphics/SVG/1.1/DTD/svg11.dtd">
<svg width="100%" height="100%" viewBox="0 0 1182 1182" version="1.1" xmlns="http://www.w3.org/2000/svg" xmlns:xlink="http://www.w3.org/1999/xlink" xml:space="preserve" xmlns:serif="http://www.serif.com/" style="fill-rule:evenodd;clip-rule:evenodd;stroke-linejoin:round;stroke-miterlimit:2;">
    <g id="Artboard1" transform="matrix(1.3475,0,0,0.840392,-1349.48,-752.581)">
        <rect x="1001.47" y="895.512" width="876.512" height="1405.42" style="fill:none;"/>
        <clipPath id="_clip1">
            <rect x="1001.47" y="895.512" width="876.512" height="1405.42"/>
        </clipPath>
        <g clip-path="url(#_clip1)">
            <g transform="matrix(5.08322,0,0,8.15054,-3334.34,-3933.12)">
                <circle cx="939.182" cy="678.647" r="86.216" style="fill:rgb(252,96,98);"/>
            </g>
            <g transform="matrix(891.753,0,0,1429.86,1345.23,1459.63)">
                <path d="M0.269,-0.136C0.269,-0.106 0.264,-0.081 0.253,-0.06C0.242,-0.038 0.229,-0.022 0.213,-0.011L0.215,-0.011C0.235,-0.011 0.252,-0.016 0.268,-0.024C0.284,-0.033 0.298,-0.044 0.311,-0.057C0.323,-0.071 0.335,-0.086 0.345,-0.103C0.355,-0.119 0.364,-0.135 0.372,-0.151C0.373,-0.154 0.376,-0.157 0.379,-0.159C0.382,-0.161 0.385,-0.162 0.389,-0.162C0.394,-0.162 0.399,-0.16 0.402,-0.156C0.405,-0.152 0.407,-0.148 0.407,-0.144C0.407,-0.141 0.406,-0.139 0.405,-0.136C0.397,-0.117 0.387,-0.098 0.375,-0.079C0.363,-0.06 0.35,-0.043 0.334,-0.028C0.318,-0.013 0.301,0 0.281,0.01C0.262,0.019 0.24,0.024 0.216,0.024C0.199,0.024 0.182,0.021 0.166,0.016C0.15,0.01 0.135,0.002 0.123,-0.009C0.118,-0.013 0.115,-0.017 0.111,-0.021C0.108,-0.025 0.105,-0.029 0.104,-0.032C0.103,-0.033 0.103,-0.034 0.103,-0.034C0.101,-0.037 0.1,-0.04 0.1,-0.043C0.1,-0.048 0.101,-0.052 0.104,-0.055C0.104,-0.056 0.105,-0.056 0.105,-0.056C0.105,-0.057 0.106,-0.057 0.106,-0.057C0.109,-0.06 0.113,-0.062 0.117,-0.062L0.118,-0.062C0.12,-0.062 0.121,-0.062 0.122,-0.062C0.122,-0.062 0.122,-0.061 0.122,-0.061C0.122,-0.061 0.123,-0.061 0.123,-0.061C0.124,-0.061 0.125,-0.061 0.126,-0.06C0.127,-0.06 0.127,-0.06 0.127,-0.06C0.13,-0.058 0.133,-0.055 0.135,-0.052C0.137,-0.048 0.14,-0.045 0.143,-0.042C0.145,-0.039 0.148,-0.037 0.152,-0.034C0.155,-0.032 0.16,-0.031 0.164,-0.031C0.172,-0.031 0.18,-0.034 0.188,-0.039C0.197,-0.043 0.204,-0.05 0.21,-0.06C0.217,-0.069 0.222,-0.08 0.226,-0.093C0.23,-0.106 0.232,-0.12 0.232,-0.136C0.232,-0.148 0.231,-0.158 0.229,-0.166C0.226,-0.175 0.223,-0.181 0.219,-0.187C0.216,-0.192 0.212,-0.196 0.208,-0.198C0.203,-0.2 0.199,-0.202 0.195,-0.202C0.187,-0.202 0.178,-0.197 0.169,-0.188C0.16,-0.179 0.151,-0.167 0.142,-0.153C0.133,-0.139 0.125,-0.124 0.116,-0.107C0.107,-0.09 0.099,-0.074 0.09,-0.058C0.089,-0.005 0.088,0.045 0.087,0.093C0.086,0.141 0.084,0.186 0.081,0.227C0.079,0.268 0.075,0.305 0.07,0.338C0.065,0.371 0.058,0.399 0.05,0.423C0.041,0.447 0.031,0.465 0.019,0.478C0.006,0.49 -0.009,0.497 -0.027,0.497C-0.032,0.497 -0.039,0.495 -0.046,0.493C-0.053,0.491 -0.06,0.486 -0.066,0.479C-0.072,0.472 -0.077,0.462 -0.082,0.449C-0.086,0.436 -0.088,0.419 -0.088,0.397C-0.088,0.369 -0.084,0.337 -0.078,0.301C-0.071,0.264 -0.061,0.226 -0.049,0.185C-0.036,0.144 -0.021,0.102 -0.004,0.059C0.013,0.016 0.032,-0.026 0.053,-0.066L0.054,-0.132C0.049,-0.127 0.044,-0.125 0.039,-0.125C0.033,-0.125 0.029,-0.127 0.025,-0.131C0.022,-0.135 0.021,-0.139 0.021,-0.144C0.021,-0.146 0.021,-0.148 0.022,-0.151C0.03,-0.169 0.036,-0.186 0.04,-0.202C0.044,-0.218 0.047,-0.232 0.05,-0.244C0.052,-0.257 0.053,-0.266 0.053,-0.273C0.054,-0.281 0.054,-0.284 0.054,-0.285C0.054,-0.29 0.056,-0.294 0.059,-0.297C0.063,-0.301 0.067,-0.303 0.072,-0.303C0.077,-0.303 0.081,-0.301 0.085,-0.298C0.089,-0.294 0.09,-0.29 0.09,-0.285L0.09,-0.135C0.098,-0.147 0.105,-0.16 0.113,-0.172C0.12,-0.185 0.128,-0.196 0.136,-0.206C0.145,-0.215 0.154,-0.223 0.163,-0.229C0.173,-0.235 0.184,-0.238 0.195,-0.238C0.206,-0.238 0.216,-0.236 0.226,-0.23C0.235,-0.225 0.243,-0.218 0.249,-0.209C0.256,-0.2 0.26,-0.189 0.264,-0.177C0.267,-0.164 0.269,-0.151 0.269,-0.136ZM0.052,0.021C0.036,0.056 0.022,0.092 0.009,0.128C-0.004,0.165 -0.015,0.199 -0.024,0.233C-0.033,0.266 -0.04,0.298 -0.044,0.327C-0.049,0.356 -0.052,0.382 -0.052,0.404C-0.052,0.41 -0.051,0.416 -0.051,0.422C-0.05,0.429 -0.049,0.435 -0.047,0.44C-0.045,0.446 -0.042,0.451 -0.039,0.454C-0.035,0.458 -0.03,0.46 -0.024,0.46C-0.014,0.46 -0.004,0.453 0.003,0.44C0.011,0.426 0.018,0.408 0.023,0.385C0.029,0.362 0.033,0.336 0.037,0.306C0.04,0.276 0.043,0.245 0.045,0.212C0.047,0.18 0.049,0.147 0.05,0.114C0.051,0.081 0.052,0.05 0.052,0.021Z" style="fill:white;fill-rule:nonzero;"/>
            </g>
        </g>
    </g>
</svg>
