<?xml version="1.0" encoding="UTF-8" standalone="no"?>
<!DOCTYPE svg PUBLIC "-//W3C//DTD SVG 1.1//EN" "http://www.w3.org/Graphics/SVG/1.1/DTD/svg11.dtd">
<svg width="100%" height="100%" viewBox="0 0 922 443" version="1.1" xmlns="http://www.w3.org/2000/svg" xmlns:xlink="http://www.w3.org/1999/xlink" xml:space="preserve" xmlns:serif="http://www.serif.com/" style="fill-rule:evenodd;clip-rule:evenodd;stroke-linejoin:round;stroke-miterlimit:2;">
    <g id="Artboard1" transform="matrix(1,0,0,1,-51.0942,-78.8085)">
        <g transform="matrix(0.880435,0,0,0.880435,18.4242,-57.2282)">
            <path d="M378.953,250.584C378.758,255.143 378.407,259.766 377.901,264.452C376.464,277.768 374.114,291.256 370.849,304.916C367.589,318.559 363.528,332.241 358.666,345.963C353.898,359.42 348.688,372.588 343.036,385.465C347.317,400.089 352.289,411.473 357.994,419.596C363.362,427.24 369.216,430.954 375.769,430.381C380.194,429.994 384.278,427.834 388.067,423.991C392.136,419.864 395.787,415.084 399.024,409.652C402.3,404.156 405.118,398.608 407.476,393.01C409.858,387.355 411.696,382.819 413,379.372C413.55,377.979 414.353,376.824 415.399,375.899C415.546,375.127 415.708,374.359 415.883,373.597C417.454,366.762 419.898,360.715 423.202,355.451C426.544,350.126 430.591,345.808 435.335,342.49C440.166,339.11 445.452,337.173 451.191,336.672C455.52,336.293 459.52,336.713 463.193,337.912C466.892,339.119 470.068,340.878 472.73,343.174C475.379,345.458 477.523,348.052 479.167,350.954C480.85,353.925 481.819,356.962 482.089,360.057C482.342,362.95 482.212,365.678 481.707,368.239C481.201,370.802 480.468,373.085 479.517,375.09C478.507,377.218 477.275,378.933 475.843,380.254C474.202,381.767 472.478,382.553 470.718,382.707C468.018,382.943 465.768,382.223 463.948,380.621C462.141,379.031 461.113,376.983 460.893,374.46C460.772,373.083 460.989,371.855 461.501,370.769C461.886,369.954 462.332,369.1 462.841,368.209C463.244,367.501 463.575,366.641 463.849,365.635C464.123,364.63 464.167,363.357 464.033,361.82C463.858,359.818 462.702,358.131 460.701,356.673C458.528,355.089 455.878,354.472 452.77,354.744C449.751,355.007 446.953,356.191 444.364,358.265C441.636,360.449 439.341,363.26 437.466,366.686C435.542,370.201 434.113,374.262 433.165,378.866C432.211,383.498 431.957,388.336 432.398,393.378C432.819,398.194 433.804,402.726 435.359,406.97C436.887,411.141 438.944,414.774 441.541,417.863C444.083,420.887 447.162,423.209 450.777,424.829C454.384,426.446 458.56,427.022 463.296,426.608C469.598,426.057 475.336,424.416 480.506,421.671C485.747,418.888 490.462,415.525 494.648,411.583C498.855,407.62 502.499,403.379 505.579,398.856C508.695,394.28 511.322,389.989 513.457,385.984C515.577,382.006 517.204,378.555 518.333,375.627C519.433,372.774 520.079,370.992 520.251,370.273C520.261,370.233 520.271,370.194 520.283,370.155C520.381,369.831 520.496,369.519 520.63,369.219C519.708,358.496 518.816,348.028 517.953,337.813C516.182,316.845 514.784,297.321 513.758,279.244C512.731,261.14 512.222,244.718 512.229,229.977C512.236,215.146 513.082,202.415 514.758,191.782C516.47,180.926 519.146,172.437 522.727,166.296C526.592,159.668 531.889,156.121 538.538,155.54C544.179,155.047 549.076,156.204 553.241,158.953C557.284,161.621 560.719,165.416 563.516,170.362C566.221,175.145 568.375,180.799 569.962,187.331C571.523,193.755 572.619,200.562 573.248,207.755C574.518,222.296 574.44,236.675 573.013,250.893C571.589,265.076 569.244,279 565.979,292.663C562.717,306.314 558.688,319.692 553.892,332.797C549.172,345.696 544.125,358.293 538.75,370.588L541.501,402.071L541.51,402.153C542.308,400.171 543.155,398.127 544.049,396.02C546.201,390.95 548.527,385.742 551.025,380.395C553.53,375.035 556.222,369.689 559.101,364.359C561.993,359.003 565.036,353.946 568.245,349.163C571.595,344.316 575.106,340.743 578.741,338.408C582.501,335.993 586.129,334.662 589.603,334.358C593.155,334.048 596.322,334.513 599.111,335.715C601.912,336.921 604.276,338.685 606.206,341.004C608.069,343.241 609.575,345.907 610.713,349.008C611.823,352.033 612.54,355.351 612.856,358.965C613.107,361.834 613.165,365.694 613.023,370.545C612.887,375.217 613.04,380.075 613.48,385.12C613.73,387.977 614.126,390.791 614.668,393.562C615.19,396.232 615.912,398.596 616.842,400.652C617.675,402.493 618.798,403.956 620.236,405.02C621.564,406.003 623.236,406.355 625.227,406.181C627.82,405.955 630.343,404.981 632.809,403.296C635.456,401.486 637.996,399.156 640.437,396.312C642.942,393.392 645.302,390.185 647.517,386.69C648.319,385.425 649.09,384.163 649.83,382.903C650.214,381.536 650.623,380.181 651.057,378.839C654.128,369.351 658.386,360.604 663.826,352.597C669.271,344.582 675.825,337.44 683.492,331.172C691.126,324.93 699.835,319.664 709.625,315.385C710.904,314.826 712.318,314.561 713.876,314.642C716.039,314.753 718.03,315.578 719.804,317.218C721.714,318.985 722.662,321.256 722.516,324.084C722.423,325.876 721.824,327.525 720.685,329.018C719.645,330.381 718.305,331.412 716.645,332.087L711.643,334.242C709.022,335.368 705.885,337.151 702.22,339.566C698.459,342.045 694.414,345.245 690.078,349.156C685.971,352.86 682.133,357.402 678.55,362.772C678.479,363.138 678.385,363.499 678.268,363.855C678.256,363.894 678.242,363.932 678.227,363.97C677.828,364.979 677.066,367.056 675.94,370.2C674.782,373.431 673.172,377.204 671.107,381.517C669.726,384.403 668.169,387.39 666.438,390.476C664.985,396.4 664.082,402.9 663.717,409.971C663.247,419.083 663.788,427.169 665.376,434.227C666.944,441.199 669.178,447.349 672.103,452.668C674.99,457.918 678.373,462.43 682.268,466.193C686.218,470.01 690.319,473.223 694.578,475.824C698.855,478.436 703.135,480.556 707.422,482.179C711.75,483.818 715.744,485.068 719.405,485.923C723.045,486.773 726.139,487.351 728.69,487.648C731.234,487.945 732.917,488.119 733.741,488.161C744.017,488.691 753.921,487.586 763.451,484.837C772.88,482.117 781.455,477.605 789.178,471.304C796.959,464.955 803.641,456.694 809.258,446.548C814.01,437.965 817.666,427.918 820.253,416.417C816.448,417.572 812.56,418.508 808.588,419.224C802.097,420.394 795.348,420.802 788.343,420.441C778.775,419.947 769.543,418.225 760.645,415.277C751.603,412.282 743.688,408.047 736.888,402.592C729.988,397.057 724.549,390.315 720.573,382.364C716.567,374.354 714.791,365.152 715.328,354.744C715.763,346.317 717.652,338.838 720.947,332.295C724.26,325.715 728.589,320.185 733.919,315.692C739.246,311.202 745.312,307.879 752.122,305.73C758.866,303.602 765.873,302.721 773.143,303.096C779.004,303.398 784.853,304.387 790.689,306.065C796.558,307.753 802.157,310.187 807.487,313.371C812.813,316.552 817.733,320.471 822.245,325.132C826.772,329.81 830.661,335.33 833.898,341.701C837.095,347.995 839.506,355.09 841.11,362.995C842.508,369.88 843.109,377.442 842.896,385.683C843.918,384.937 844.917,384.174 845.893,383.393C847.456,382.141 848.871,380.945 850.137,379.803C850.421,379.547 850.689,379.299 850.943,379.059C851.609,370.864 854.008,363.402 858.116,356.667C862.409,349.631 868.085,343.375 875.161,337.916C882.093,332.568 890.112,328.016 899.225,324.275C908.185,320.597 917.708,317.636 927.796,315.396C937.832,313.167 948.187,311.641 958.859,310.818C969.513,309.997 979.956,309.851 990.186,310.379C1003.01,311.04 1014.14,312.398 1023.57,314.436C1033.1,316.496 1041.21,318.941 1047.92,321.752C1054.84,324.648 1060.46,327.845 1064.81,331.302C1069.18,334.781 1072.67,338.179 1075.33,341.524C1081.74,349.862 1084.67,359.135 1084.15,369.333C1083.98,372.672 1083.48,375.851 1082.65,378.87C1082.06,381.078 1080.88,382.747 1079.22,383.941C1077.5,385.177 1075.64,385.714 1073.66,385.612C1070.84,385.466 1068.66,384.371 1067.03,382.482C1065.38,380.567 1064.65,378.407 1064.77,376.026C1064.85,374.44 1065.09,372.889 1065.49,371.372C1065.74,370.411 1065.89,369.462 1065.94,368.525C1066.21,363.143 1064.8,358.23 1061.71,353.784C1058.4,349.034 1053.55,344.975 1047.21,341.53C1040.52,337.893 1032.31,334.968 1022.59,332.716C1012.67,330.418 1001.56,328.958 989.261,328.324C979.814,327.837 970.272,327.963 960.634,328.704C951.004,329.443 941.729,330.754 932.807,332.639C923.956,334.508 915.642,336.996 907.869,340.105C900.234,343.159 893.541,346.793 887.799,351.025C882.227,355.13 877.764,359.766 874.433,364.955C871.234,369.939 869.485,375.483 869.171,381.584C868.938,386.089 869.676,390.116 871.456,393.652C873.295,397.305 875.912,400.531 879.287,403.345C882.853,406.318 887.112,408.913 892.05,411.149C897.178,413.47 902.763,415.477 908.803,417.173C914.941,418.897 921.347,420.379 928.022,421.619C934.763,422.871 941.554,423.975 948.383,424.929C948.383,424.929 968.321,427.652 968.332,427.654C978.308,429.042 987.236,430.42 995.116,431.788C1003.14,433.181 1010.18,434.793 1016.25,436.625C1026.96,439.92 1034.71,444.359 1039.64,449.721C1044.89,455.44 1047.39,462.794 1046.92,471.849C1046.48,480.322 1043.74,487.642 1038.73,493.829C1033.91,499.789 1027.51,504.703 1019.5,508.523C1011.77,512.213 1002.83,514.857 992.662,516.422C982.671,517.961 972.02,518.443 960.71,517.86C948.472,517.229 937.762,515.845 928.579,513.727C919.389,511.607 911.719,509.38 905.565,507.061C899.278,504.691 894.508,502.543 891.242,500.648C888.202,498.883 886.431,497.816 885.912,497.474L886.065,497.578C883.209,495.794 881.801,493.142 881.986,489.549C882.129,486.776 883.268,484.606 885.313,482.995C887.273,481.451 889.37,480.803 891.558,480.916C893.212,481.001 894.704,481.498 896.038,482.4C896.668,482.739 898.121,483.571 900.389,484.909C903.067,486.489 907.101,488.265 912.476,490.272C918.003,492.336 924.871,494.293 933.077,496.157C941.294,498.023 950.903,499.231 961.903,499.798C972.76,500.358 982.4,499.981 990.823,498.643C999.033,497.339 1005.99,495.316 1011.69,492.526C1017.05,489.899 1021.19,486.746 1024.06,482.984C1026.75,479.455 1028.21,475.559 1028.43,471.286C1028.55,468.962 1028.29,466.925 1027.54,465.189C1026.8,463.458 1025.74,461.944 1024.34,460.644C1022.8,459.204 1020.93,457.961 1018.74,456.893C1016.34,455.72 1013.71,454.7 1010.8,453.812C1007.67,452.814 1004.31,451.93 1000.71,451.159C997.04,450.372 993.257,449.665 989.364,449.038C985.429,448.404 981.471,447.811 977.488,447.261C973.471,446.706 969.519,446.154 965.65,445.608C965.65,445.608 945.712,442.885 945.72,442.886C929.781,440.741 915.925,437.97 904.15,434.585C892.121,431.126 882.186,426.943 874.328,422.078C866.093,416.978 860.062,411.031 856.159,404.314C855.277,402.796 854.503,401.23 853.835,399.616C851.762,401.111 849.529,402.615 847.135,404.129C845.03,405.459 842.875,406.72 840.668,407.908C838.18,424.525 833.786,438.958 827.528,451.219C820.934,464.136 812.813,474.769 803.197,483.141C793.519,491.566 782.638,497.674 770.558,501.468C758.565,505.234 745.941,506.783 732.685,506.099C725.469,505.727 718.225,504.586 710.953,502.674C703.644,500.752 696.674,498.006 690.04,494.437C683.386,490.857 677.231,486.438 671.575,481.176C665.878,475.876 661.005,469.658 656.965,462.515C652.954,455.424 649.915,447.429 647.866,438.525C646.32,431.803 645.516,424.505 645.466,416.631C644.342,417.494 643.191,418.31 642.013,419.079C637.468,422.042 632.581,423.749 627.356,424.205C621.241,424.74 616.219,423.816 612.27,421.549C608.343,419.295 605.182,416.273 602.786,412.486C600.456,408.803 598.725,404.615 597.602,399.92C596.51,395.357 595.775,390.889 595.392,386.516C595.196,384.271 595.08,381.862 595.043,379.288C595.007,376.75 595.005,374.24 595.036,371.758C595.067,369.305 595.08,367.006 595.077,364.862C595.073,362.78 595.011,361.03 594.887,359.613C594.612,356.467 594.162,354.327 593.202,353.287C592.56,352.591 591.912,352.182 591.167,352.247C589.598,352.384 587.971,353.575 586.121,355.564C583.892,357.958 581.61,361.045 579.264,364.817C576.872,368.664 574.52,372.963 572.206,377.714C569.866,382.518 567.615,387.283 565.452,392.011C563.297,396.722 561.365,401.199 559.658,405.444C557.942,409.711 556.53,413.245 555.422,416.046C553.134,421.834 550.587,425.767 547.915,427.929C545.047,430.251 542.376,431.447 539.966,431.658C535.426,432.055 531.801,430.541 529.071,427.165C526.551,424.047 525.055,420.134 524.641,415.402L523.667,404.255C522.014,406.838 520.206,409.475 518.244,412.167C514.421,417.412 509.939,422.306 504.796,426.847C499.634,431.405 493.752,435.302 487.147,438.533C480.494,441.788 473.127,443.774 465.042,444.481C457.751,445.118 451.178,444.356 445.32,442.225C439.434,440.084 434.288,436.778 429.882,432.306C425.514,427.873 422.021,422.5 419.414,416.18C418.932,415.01 418.482,413.813 418.066,412.588C416.277,415.909 414.313,419.228 412.174,422.544C409.281,427.03 406.067,431.1 402.533,434.758C398.957,438.458 395.07,441.545 390.876,444.021C386.57,446.563 381.878,448.057 376.799,448.501C368.944,449.188 361.994,447.34 355.942,442.989C350.089,438.78 344.921,433.053 340.459,425.788C337.327,420.689 334.512,415.035 332.019,408.824C331.626,409.675 331.215,410.548 330.786,411.443C328.732,415.734 326.292,420.246 323.466,424.978C320.606,429.768 317.338,434.214 313.662,438.318C309.946,442.466 305.855,445.976 301.391,448.851C296.789,451.815 291.815,453.529 286.469,453.996C278.821,454.664 272.185,452.766 266.55,448.342C262.11,444.857 258.498,440.499 255.723,435.261C252.4,441.166 248.414,446.092 243.779,450.048C238.025,454.958 232.062,457.643 225.926,458.179C221.093,458.602 216.642,458.091 212.569,456.671C208.466,455.239 204.893,453.03 201.848,450.048C198.842,447.104 196.4,443.557 194.532,439.401C194.287,438.858 194.055,438.307 193.836,437.748C191.375,441.532 188.681,445.13 185.756,448.542C180.251,454.963 173.897,460.352 166.695,464.71C159.418,469.112 151.158,471.727 141.908,472.535C135.212,473.121 128.615,472.647 122.117,471.114C115.567,469.57 109.677,466.784 104.444,462.761C102.504,461.487 100.814,460.091 99.372,458.579C97.997,457.138 96.867,455.762 95.979,454.456C95.615,454.094 95.377,453.711 95.235,453.324C94.835,452.774 94.512,452.204 94.264,451.615C95.516,468.621 96.637,484.94 97.629,500.573C98.772,518.594 99.498,535.357 99.805,550.862C100.113,566.4 99.893,580.501 99.147,593.166C98.394,605.94 96.796,616.948 94.365,626.193C91.874,635.666 88.407,643.069 84.025,648.43C79.432,654.05 73.485,657.181 66.182,657.82C63.924,658.017 61.292,657.793 58.289,657.119C55.194,656.424 52.201,654.748 49.344,652.032C46.625,649.449 44.163,645.644 42.015,640.583C39.935,635.681 38.502,629.01 37.763,620.559C36.847,610.069 37.075,597.8 38.459,583.752C39.835,569.779 42.212,554.883 45.592,539.065C48.965,523.273 53.193,507.006 58.274,490.263C63.307,473.679 69.037,457.459 75.466,441.6C75.109,437.487 74.785,433.428 74.494,429.423C74.298,426.719 74.093,424.067 73.878,421.468C72.803,422.043 71.625,422.383 70.35,422.494C67.599,422.735 65.341,421.922 63.552,420.121C61.83,418.386 60.898,416.415 60.707,414.232C60.613,413.151 60.73,411.972 61.085,410.696L61.117,410.591C63.424,403.729 65.101,397.255 66.143,391.169C67.191,385.053 67.911,379.695 68.3,375.097C68.684,370.559 68.826,366.974 68.716,364.341C68.606,361.704 68.547,360.325 68.537,360.206C68.328,357.812 69.013,355.656 70.615,353.747C72.206,351.852 74.264,350.785 76.799,350.564C79.182,350.355 81.32,351.005 83.213,352.52C85.121,354.046 86.202,356.082 86.426,358.643L90.679,407.312C91.98,404.623 93.284,401.952 94.589,399.298C97.044,394.306 99.7,389.801 102.555,385.78C105.48,381.659 108.73,378.255 112.296,375.559C116.014,372.748 120.271,371.128 125.072,370.709C129.601,370.313 133.823,371.025 137.739,372.83C141.596,374.609 145.001,377.215 147.947,380.66C150.837,384.04 153.184,388.146 154.969,392.985C156.723,397.741 157.847,402.901 158.334,408.469C159.348,420.073 158.105,430.152 154.66,438.715C152.157,444.934 149.058,450.167 145.381,454.425C150.091,453.408 154.405,451.6 158.32,448.994C163.778,445.362 168.596,440.89 172.777,435.583C177.009,430.21 180.712,424.311 183.887,417.885C187.101,411.382 189.907,405.098 192.305,399.034C192.942,397.262 193.97,395.852 195.367,394.789C195.459,394.719 195.552,394.651 195.646,394.586C198.122,388.752 201.249,383.647 205.018,379.267C209.783,373.73 215.202,369.421 221.268,366.33C227.358,363.228 233.339,361.432 239.206,360.919C243.225,360.568 246.969,360.802 250.436,361.61C253.84,362.402 256.773,363.336 259.239,364.403C261.769,365.498 263.731,366.553 265.134,367.549C266.528,368.539 267.293,369.098 267.434,369.216C267.478,369.253 267.521,369.292 267.562,369.333C269.44,371.196 270.428,373.234 270.617,375.4C270.825,377.77 270.156,379.946 268.577,381.915C266.974,383.913 264.96,385 262.554,385.21C260.019,385.431 257.807,384.738 255.912,383.147C255.677,382.95 255.151,382.594 254.343,382.066C253.523,381.53 252.424,380.999 251.052,380.457C249.635,379.897 247.97,379.448 246.058,379.102C244.16,378.759 242.03,378.698 239.67,378.904C236.125,379.214 232.425,380.358 228.562,382.309C224.686,384.267 221.236,387.091 218.204,390.768C215.126,394.498 212.689,399.059 210.871,404.44C209.047,409.838 208.467,416.102 209.089,423.229C209.28,425.412 209.704,427.603 210.36,429.804C210.983,431.896 211.914,433.77 213.159,435.423C214.351,437.005 215.885,438.236 217.753,439.126C219.635,440.023 221.897,440.321 224.53,440.091C226.458,439.923 228.609,439.044 231.015,437.538C233.551,435.951 235.898,433.627 238.079,430.591C240.338,427.448 242.287,423.561 243.945,418.939C245.614,414.286 246.583,408.86 246.873,402.65C246.996,400.407 247.855,398.455 249.465,396.799C251.061,395.157 253.033,394.226 255.388,394.02C257.665,393.821 259.745,394.514 261.609,396.154C263.399,397.728 264.449,399.612 264.803,401.823C265.125,404.116 265.651,407.338 266.381,411.489C267.09,415.525 268.239,419.494 269.827,423.395C271.362,427.163 273.444,430.371 276.085,433.01C278.487,435.41 281.621,436.394 285.455,436.059C288.049,435.832 290.549,434.891 292.966,433.264C295.559,431.519 298.047,429.282 300.438,426.562C302.883,423.779 305.177,420.651 307.323,417.178C309.497,413.658 311.459,410.127 313.208,406.584C314.958,403.038 316.479,399.633 317.769,396.369C319.073,393.071 320.171,390.22 321.052,387.846C321.666,386.108 322.651,384.714 323.99,383.653C323.058,380.065 322.198,376.445 321.411,372.791C319.329,363.134 317.671,353.719 316.436,344.546C315.204,335.388 314.277,327.254 313.656,320.143C312.756,309.845 312.16,299.149 311.87,288.056C311.652,279.699 311.672,271.461 311.929,263.342C293.571,264.361 280.932,263.358 280.913,263.356C275.755,262.946 271.901,258.425 272.311,253.267C272.721,248.109 277.242,244.255 282.4,244.665C282.4,244.665 294.979,245.666 312.987,244.533C313.551,237.741 314.308,231.173 315.258,224.829C316.716,215.092 318.714,206.494 321.244,199.035C323.831,191.409 327.043,185.27 330.845,180.6C334.905,175.614 339.794,172.908 345.473,172.412C349.891,172.026 353.963,172.726 357.692,174.491C361.414,176.252 364.71,179.336 367.523,183.801C370.186,188.028 372.474,193.619 374.358,200.589C376.203,207.419 377.57,215.851 378.447,225.886C378.581,227.43 378.697,228.982 378.792,230.54C399.203,222.045 417.772,208.6 427.521,186.892C429.641,182.172 435.194,180.06 439.914,182.18C444.634,184.3 446.745,189.853 444.626,194.573C431.708,223.336 406.327,240.589 378.953,250.584ZM78.666,485.317C75.245,495.867 72.16,506.42 69.411,516.979C65.787,530.899 62.849,544.268 60.6,557.086C58.353,569.887 56.796,581.832 55.929,592.921C55.068,603.941 54.992,613.553 55.709,621.759C55.885,623.772 56.196,625.952 56.639,628.299C57.064,630.547 57.698,632.606 58.547,634.474C59.33,636.197 60.339,637.616 61.595,638.718C62.642,639.638 63.964,639.988 65.535,639.851C68.922,639.555 71.515,637.005 73.606,632.53C76.024,627.355 77.829,620.492 79.057,611.952C80.309,603.233 81.116,593.271 81.48,582.066C81.846,570.812 81.892,559.064 81.62,546.822C81.347,534.566 80.853,522.236 80.137,509.834C79.647,501.331 79.157,493.158 78.666,485.317ZM113.302,446.77C114.229,447.541 115.307,448.217 116.534,448.805C117.62,449.325 118.822,449.514 120.136,449.399C122.836,449.163 125.455,448.095 128.013,446.24C130.691,444.297 133.012,441.634 134.997,438.271C137.038,434.811 138.573,430.687 139.62,425.907C140.678,421.08 140.948,415.788 140.445,410.032C140.081,405.865 139.348,402.341 138.222,399.465C137.133,396.684 135.882,394.445 134.438,392.767C133.084,391.193 131.707,390.052 130.274,389.384C128.98,388.781 127.772,388.498 126.636,388.597C123.808,388.844 121.15,390.665 118.527,393.848C115.551,397.46 112.688,401.963 109.927,407.351C107.115,412.839 104.382,418.869 101.725,425.44C99.104,431.925 96.438,438.238 93.727,444.379L93.875,446.372C94.12,445.376 94.551,444.405 95.171,443.459C95.451,442.865 95.808,442.5 96.121,442.28L96.148,442.25C97.61,440.683 99.298,439.759 101.188,439.434C101.245,439.424 101.302,439.417 101.36,439.412L101.91,439.364C102.647,439.299 103.232,439.341 103.669,439.432C103.892,439.449 104.096,439.494 104.281,439.56C104.798,439.583 105.384,439.705 106.035,439.962C106.098,439.987 106.161,440.015 106.221,440.047C106.37,440.089 106.514,440.148 106.652,440.223C108.058,440.993 109.263,442.004 110.265,443.256C110.291,443.289 110.316,443.322 110.34,443.356C111.228,444.612 112.215,445.751 113.302,446.77ZM105.549,439.97C105.664,439.964 105.779,439.968 105.893,439.982C105.82,439.972 105.748,439.967 105.677,439.967C105.634,439.966 105.591,439.967 105.549,439.97C105.523,439.971 105.496,439.973 105.47,439.975L105.549,439.97ZM824.057,396.147C824.333,393.66 824.534,391.17 824.663,388.676C825.266,376.984 824.115,366.888 821.127,358.396C818.191,350.052 814.193,343.138 809.08,337.683C804.02,332.284 798.234,328.226 791.711,325.521C785.103,322.782 778.435,321.231 771.704,320.884C766.67,320.624 761.887,321.198 757.357,322.621C752.91,324.017 748.963,326.171 745.522,329.091C742.09,332.002 739.327,335.671 737.208,340.078C735.044,344.579 733.837,349.785 733.533,355.683C733.242,361.323 734.16,366.81 736.281,372.143C738.411,377.501 741.746,382.319 746.259,386.616C750.877,391.013 756.741,394.602 763.822,397.43C771.066,400.323 779.595,401.997 789.399,402.503C796.039,402.845 802.414,402.357 808.523,401.028C813.915,399.855 819.093,398.229 824.057,396.147ZM360.527,256.221C350.089,258.856 339.752,260.608 330.158,261.756C329.922,270.372 329.908,279.31 330.117,288.57C330.352,298.963 330.915,309.266 331.808,319.48C332.487,327.258 333.323,334.718 334.314,341.857C334.946,346.405 335.616,350.825 336.324,355.117C339.544,346.857 342.579,338.221 345.431,329.207C349.076,317.69 352.163,306.099 354.693,294.435C357.219,282.786 359.054,271.259 360.196,259.854C360.318,258.636 360.428,257.426 360.527,256.221ZM535.687,333.419C538.559,324.977 541.197,316.704 543.601,308.602C546.86,297.617 549.515,286.716 551.565,275.898C553.613,265.094 555.012,254.194 555.761,243.198C556.508,232.223 556.368,220.869 555.343,209.135C555.174,207.2 554.813,204.123 554.261,199.906C553.719,195.757 552.814,191.58 551.547,187.375C550.316,183.288 548.676,179.758 546.611,176.793C544.913,174.355 542.763,173.196 540.101,173.429C538.056,173.607 536.591,175.322 535.343,178.195C533.761,181.836 532.538,186.697 531.645,192.771C530.728,198.997 530.142,206.199 529.883,214.376C529.622,222.609 529.587,231.312 529.776,240.486C529.965,249.675 530.328,259.093 530.864,268.742C531.401,278.403 532.006,287.782 532.678,296.878C533.35,305.976 534.033,314.49 534.725,322.419L535.687,333.419ZM361.09,236.663C361.004,233.601 360.832,230.591 360.574,227.632C359.344,213.563 357.379,203.576 354.582,197.693C352.221,192.727 349.707,190.067 346.487,190.349C344.465,190.525 342.808,192.285 341.174,195.241C339.174,198.862 337.442,203.713 335.953,209.785C334.428,216 333.182,223.285 332.21,231.64C331.79,235.242 331.431,238.95 331.132,242.765C340.669,241.493 350.888,239.561 361.09,236.663Z" style="fill:rgb(252,96,98);fill-rule:nonzero;"/>
        </g>
        <g transform="matrix(0.999656,-0.0262456,0.0262456,0.999656,43.0988,80.8629)">
            <path d="M198.521,309.708C199.96,307.463 202.149,305.987 205.61,305.757C208.305,305.578 210.583,306.222 212.382,307.561C215.048,309.544 216.677,313.075 216.991,317.812C217.518,325.742 213.797,331.222 207.159,331.663C203.876,331.881 201.502,330.764 199.789,328.804C199.799,328.926 199.808,329.045 199.816,329.161C199.816,329.161 200.44,338.557 200.44,338.557C200.486,339.256 200.27,339.812 199.868,340.211C199.487,340.59 198.922,340.831 198.206,340.879C197.468,340.928 196.867,340.764 196.436,340.442C195.976,340.099 195.688,339.576 195.641,338.875C195.641,338.875 193.662,309.067 193.662,309.067C193.613,308.339 193.834,307.783 194.244,307.39C194.629,307.021 195.202,306.791 195.939,306.742C196.74,306.689 197.433,306.901 197.885,307.346C198.205,307.661 198.417,308.096 198.455,308.663C198.455,308.663 198.506,309.432 198.506,309.432C198.511,309.516 198.516,309.609 198.521,309.708ZM93.875,336.583C93.915,337.179 94.117,337.636 94.43,337.969C94.882,338.451 95.591,338.686 96.485,338.627C97.197,338.579 97.772,338.351 98.164,337.974C98.577,337.576 98.809,337.01 98.759,336.259C98.759,336.259 96.743,305.896 96.743,305.896C96.693,305.145 96.388,304.614 95.926,304.274C95.487,303.953 94.887,303.802 94.175,303.849C93.281,303.909 92.61,304.236 92.225,304.773C91.959,305.145 91.819,305.624 91.859,306.22C91.859,306.22 93.875,336.583 93.875,336.583ZM123.928,331.275C122.688,334.316 120.29,337.432 114.489,337.817C110.824,338.061 107.848,336.944 105.72,334.813C103.611,332.7 102.332,329.576 102.077,325.744C101.771,321.142 102.983,317.283 105.542,314.822C107.263,313.166 109.596,312.133 112.513,311.939C119.038,311.506 123.064,316.331 123.9,322.155L123.927,322.534C123.988,323.456 123.77,324.17 123.36,324.672C122.937,325.192 122.301,325.503 121.482,325.557L106.965,326.521C107.282,329.247 108.292,331.326 109.941,332.515C111.088,333.342 112.539,333.727 114.253,333.614C117.088,333.425 118.567,331.9 119.373,329.75L119.381,329.733C119.807,328.716 120.51,328.308 121.275,328.257C121.619,328.235 121.971,328.303 122.325,328.38C123.286,328.594 124.072,329.243 124.138,330.241C124.161,330.58 124.122,330.922 123.928,331.275ZM129.392,311.419L129.082,306.751C129.034,306.028 129.251,305.462 129.657,305.058C130.042,304.675 130.617,304.432 131.356,304.383C132.19,304.327 132.899,304.574 133.36,305.062C133.677,305.398 133.885,305.853 133.923,306.429L134.234,311.097L139.201,310.768C139.906,310.721 140.437,310.931 140.809,311.304C141.167,311.661 141.383,312.186 141.426,312.837C141.468,313.467 141.311,314.009 140.993,314.409C140.667,314.82 140.167,315.094 139.491,315.139L134.524,315.469L135.441,329.276C135.5,330.169 135.707,330.803 136.094,331.194C136.453,331.555 136.96,331.677 137.584,331.635C138.545,331.571 139.179,331.255 139.807,330.828C139.817,330.821 139.826,330.815 139.836,330.809C140.155,330.623 140.48,330.499 140.81,330.477C141.65,330.422 142.385,330.959 142.772,331.766C142.951,332.117 143.034,332.526 143.058,332.888C143.109,333.658 142.825,334.448 142.029,334.943L142.011,334.953C140.751,335.668 139.563,336.109 137.632,336.237C135.742,336.363 134.08,335.98 132.844,334.98C131.61,333.98 130.783,332.357 130.622,329.939L129.683,315.79L126.851,315.978C126.161,316.024 125.65,315.809 125.293,315.436C124.957,315.083 124.755,314.571 124.713,313.946C124.663,313.19 124.867,312.546 125.311,312.125C125.616,311.836 126.038,311.642 126.603,311.604L129.392,311.419ZM166.999,323.254L164.534,322.946C161.18,322.52 158.984,321.672 157.69,320.171C156.805,319.144 156.325,317.808 156.208,316.058C155.934,311.925 159.221,308.795 165.08,308.405C170.088,308.073 173.408,310.03 174.755,313.249C174.76,313.262 174.765,313.275 174.769,313.289C174.836,313.496 174.898,313.705 174.912,313.915C174.981,314.951 174.152,315.762 173.189,316.1C173.177,316.104 173.165,316.107 173.154,316.111C172.913,316.176 172.623,316.241 172.379,316.258C171.387,316.323 170.389,315.909 170.048,314.892C169.437,313.206 167.668,312.496 165.49,312.64C162.426,312.844 160.981,314.06 161.087,315.649C161.13,316.305 161.253,316.812 161.602,317.205C162.18,317.855 163.288,318.189 165.295,318.482C165.295,318.482 167.979,318.861 167.978,318.861C171.515,319.354 173.792,320.149 175.128,321.687C176.041,322.738 176.535,324.141 176.662,326.067C176.951,330.408 173.521,333.94 167.19,334.36C161.439,334.742 157.944,332.624 156.511,328.704C156.506,328.69 156.501,328.676 156.498,328.662C156.431,328.415 156.372,328.216 156.359,328.016C156.286,326.922 157.128,326.064 158.157,325.775C158.402,325.709 158.648,325.647 158.847,325.634C159.878,325.565 160.864,325.972 161.259,326.984C161.679,328.076 162.294,328.882 163.191,329.382C164.118,329.899 165.331,330.093 166.9,329.989C168.492,329.883 169.787,329.46 170.663,328.797C171.457,328.196 171.888,327.394 171.827,326.474C171.701,324.583 170.556,323.715 166.999,323.254ZM222.518,312.984C221.474,312.721 220.706,311.98 220.642,311.007C220.628,310.796 220.661,310.581 220.7,310.367L220.707,310.334C221.07,308.887 222.16,307.477 223.159,306.583C224.641,305.274 226.593,304.363 230.208,304.123C233.216,303.923 235.494,304.397 237.07,305.554C238.676,306.734 239.587,308.626 239.766,311.324C239.766,311.324 240.54,322.983 240.54,322.983C240.635,324.417 240.929,325.798 241.223,326.553C241.293,326.725 241.362,326.956 241.373,327.131C241.432,328.024 240.717,328.934 239.33,329.139L238.906,329.168C237.8,329.242 236.826,328.891 236.534,327.914C236.441,327.623 236.354,327.249 236.278,326.823C234.741,328.504 232.547,329.934 228.765,330.185C226.269,330.351 224.22,329.764 222.75,328.568C221.268,327.362 220.362,325.532 220.206,323.175C219.923,318.919 222.256,316.017 226.479,314.554C228.733,313.776 230.888,313.364 235.185,312.982L235.095,311.634C235.029,310.641 234.779,309.879 234.291,309.342C233.542,308.517 232.273,308.248 230.447,308.369C227.613,308.557 226.264,309.7 225.722,311.529C225.408,312.597 224.617,313.046 223.684,313.108C223.284,313.134 222.88,313.106 222.518,312.984ZM385.159,297.123L385.099,296.225C385.059,295.624 385.237,295.099 385.621,294.707C385.977,294.343 386.528,294.085 387.299,294.033C388.021,293.985 388.601,294.143 389.019,294.471C389.452,294.81 389.731,295.339 389.781,296.085C389.781,296.085 391.094,315.858 391.094,315.858C391.433,320.963 390.261,324.173 388.308,326.164C386.345,328.166 383.569,328.954 380.623,329.15C375.807,329.47 372.634,328.036 370.794,325.963C370.789,325.958 370.785,325.953 370.781,325.948C370.477,325.577 370.294,325.193 370.265,324.747C370.218,324.047 370.535,323.315 371.15,322.786C371.553,322.44 372.123,322.193 372.653,322.157C373.264,322.117 373.834,322.302 374.318,322.779C375.913,324.402 377.732,325.123 380.174,324.961C382.169,324.828 383.634,324.349 384.642,323.418C386.176,322.001 386.626,319.588 386.412,315.997C386.41,315.96 386.407,315.92 386.405,315.878C384.984,317.889 382.806,319.268 379.681,319.476C373.344,319.897 368.566,315.316 368.071,307.864C367.562,300.198 371.234,294.8 378.097,294.344C381.243,294.135 383.579,295.306 385.159,297.123ZM247.172,303.597L246.862,298.929C246.814,298.206 247.031,297.64 247.436,297.236C247.822,296.853 248.397,296.61 249.136,296.561C249.97,296.505 250.679,296.752 251.14,297.24C251.457,297.576 251.665,298.031 251.703,298.607L252.013,303.275L256.981,302.945C257.686,302.899 258.217,303.109 258.589,303.482C258.947,303.839 259.163,304.364 259.206,305.014C259.248,305.645 259.09,306.187 258.773,306.587C258.446,306.998 257.947,307.272 257.271,307.317L252.304,307.647L253.221,321.454C253.28,322.347 253.487,322.981 253.874,323.372C254.233,323.733 254.74,323.855 255.364,323.813C256.325,323.749 256.959,323.433 257.587,323.006C257.596,322.999 257.606,322.993 257.616,322.987C257.935,322.801 258.26,322.677 258.59,322.655C259.43,322.599 260.165,323.137 260.552,323.944C260.731,324.295 260.814,324.704 260.838,325.066C260.889,325.836 260.605,326.626 259.809,327.121L259.791,327.131C258.531,327.846 257.343,328.287 255.412,328.415C253.522,328.541 251.86,328.158 250.624,327.158C249.39,326.158 248.563,324.535 248.402,322.117L247.463,307.968L244.63,308.156C243.941,308.202 243.43,307.987 243.073,307.614C242.736,307.261 242.535,306.749 242.493,306.124C242.443,305.368 242.647,304.724 243.091,304.303C243.395,304.014 243.818,303.82 244.383,303.782L247.172,303.597ZM205.342,310.122C209.387,309.854 211.725,313.019 212.071,318.225C212.414,323.397 210.448,327.053 206.399,327.322C202.184,327.602 199.395,324.109 199.064,319.131C198.736,314.195 200.927,310.415 205.342,310.122ZM283.004,320.308C281.997,323.484 279.839,326.879 273.738,327.284C270.84,327.476 268.396,326.775 266.47,325.382C263.606,323.31 261.881,319.686 261.577,315.109C261.275,310.56 262.454,306.693 264.995,304.216C266.705,302.549 269.035,301.502 271.97,301.307C277.902,300.913 280.54,304.044 281.851,306.799C281.979,307.067 282.055,307.394 282.069,307.614C282.138,308.648 281.405,309.382 280.61,309.763C280.595,309.77 280.579,309.777 280.563,309.783C280.227,309.903 279.839,309.979 279.496,310.002C278.657,310.057 277.91,309.766 277.455,308.84L277.447,308.825C277.007,307.847 276.476,306.986 275.672,306.403C274.877,305.826 273.819,305.532 272.343,305.63C268.172,305.907 266.205,309.642 266.543,314.736C266.892,319.989 269.285,323.232 273.536,322.949C275.057,322.848 276.1,322.424 276.833,321.739C277.571,321.049 277.99,320.107 278.295,319.015C278.612,317.941 279.363,317.458 280.245,317.4C280.595,317.376 280.947,317.404 281.306,317.523C282.309,317.692 283.082,318.344 283.148,319.338C283.169,319.657 283.138,319.927 283.004,320.308ZM235.456,317.059C230.935,317.499 228.769,318.043 227.213,318.954C225.736,319.819 225.014,321.057 225.135,322.89C225.264,324.835 226.877,326.005 229.12,325.856C231.644,325.689 233.644,324.308 234.818,322.623C235.494,321.641 235.71,320.883 235.612,319.407L235.456,317.059ZM290.599,303.641C292.006,301.434 294.218,299.872 297.852,299.631C300.556,299.451 302.684,300.151 304.188,301.574C305.681,302.987 306.568,305.131 306.752,307.905C306.752,307.905 307.714,322.382 307.714,322.382C307.754,322.981 307.598,323.465 307.316,323.84C306.911,324.377 306.225,324.697 305.397,324.752C304.685,324.8 304.085,324.649 303.647,324.327C303.184,323.988 302.88,323.457 302.83,322.706C302.83,322.706 301.922,309.041 301.922,309.041C301.79,307.047 301.24,305.605 300.157,304.825C299.451,304.318 298.528,304.105 297.382,304.181C295.157,304.329 293.482,305.486 292.29,307.318C291.384,308.738 291.016,309.92 291.119,311.474C291.119,311.474 291.913,323.431 291.913,323.431C291.963,324.179 291.744,324.742 291.353,325.136C290.975,325.517 290.419,325.747 289.724,325.793C288.836,325.852 288.113,325.621 287.648,325.144C287.323,324.81 287.111,324.351 287.072,323.753C287.072,323.753 285.052,293.347 285.052,293.347C285.014,292.765 285.164,292.29 285.445,291.921C285.843,291.398 286.528,291.075 287.415,291.016C288.107,290.97 288.685,291.112 289.107,291.425C289.549,291.753 289.844,292.272 289.894,293.025L290.599,303.641ZM327.927,298.234L327.617,293.565C327.569,292.843 327.785,292.277 328.191,291.873C328.577,291.49 329.152,291.247 329.891,291.198C330.725,291.142 331.434,291.389 331.894,291.877C332.212,292.213 332.42,292.668 332.458,293.244L332.768,297.912L337.736,297.582C338.441,297.535 338.972,297.746 339.344,298.118C339.701,298.476 339.918,299.001 339.961,299.651C340.003,300.282 339.845,300.824 339.528,301.224C339.201,301.634 338.702,301.909 338.026,301.954L333.059,302.284L333.976,316.091C334.035,316.984 334.242,317.618 334.629,318.008C334.987,318.37 335.495,318.491 336.119,318.45C337.08,318.386 337.714,318.07 338.342,317.642C338.351,317.636 338.361,317.63 338.371,317.624C338.69,317.437 339.015,317.314 339.345,317.292C340.185,317.236 340.92,317.774 341.306,318.581C341.485,318.932 341.569,319.341 341.593,319.703C341.644,320.473 341.36,321.262 340.563,321.757L340.546,321.768C339.286,322.483 338.098,322.924 336.167,323.052C334.277,323.178 332.614,322.795 331.379,321.794C330.145,320.795 329.318,319.171 329.157,316.754L328.217,302.605L325.385,302.793C324.696,302.839 324.185,302.624 323.828,302.251C323.491,301.898 323.289,301.386 323.248,300.761C323.198,300.004 323.402,299.361 323.846,298.94C324.15,298.651 324.573,298.457 325.138,298.419L327.927,298.234ZM118.943,321.365C118.274,318.599 116.411,315.814 112.787,316.055C109.15,316.296 107.283,318.765 106.886,322.393L118.817,321.601C118.863,321.598 118.918,321.587 118.955,321.579L118.943,321.365ZM353.027,295.966C349.406,296.207 346.604,297.717 344.765,300.123C342.944,302.507 342.069,305.786 342.323,309.617C342.585,313.557 343.878,316.733 346.004,318.87C348.151,321.028 351.148,322.143 354.835,321.898C361.78,321.437 365.743,315.843 365.228,308.096C364.973,304.244 363.704,301.11 361.629,298.991C359.532,296.849 356.607,295.729 353.027,295.966ZM416.328,311.856C415.088,314.897 412.69,318.013 406.889,318.398C403.224,318.642 400.248,317.525 398.12,315.394C396.011,313.282 394.731,310.157 394.477,306.325C394.171,301.723 395.383,297.864 397.942,295.403C399.663,293.747 401.996,292.714 404.913,292.52C411.438,292.087 415.464,296.912 416.3,302.736L416.327,303.116C416.388,304.037 416.17,304.751 415.76,305.253C415.337,305.773 414.701,306.084 413.882,306.138L399.365,307.102C399.682,309.828 400.692,311.907 402.341,313.096C403.488,313.923 404.939,314.308 406.653,314.195C409.488,314.006 410.967,312.481 411.773,310.331L411.78,310.314C412.207,309.297 412.91,308.889 413.675,308.838C414.019,308.816 414.371,308.884 414.725,308.961C415.686,309.175 416.472,309.824 416.538,310.822C416.561,311.161 416.522,311.503 416.328,311.856ZM353.44,300.244C357.527,299.972 359.964,303.332 360.299,308.381C360.654,313.721 358.671,317.338 354.294,317.629C350.163,317.903 347.596,314.512 347.258,309.418C346.904,304.077 349.103,300.532 353.44,300.244ZM421.792,292L421.482,287.332C421.434,286.609 421.651,286.043 422.057,285.639C422.442,285.256 423.017,285.013 423.756,284.964C424.59,284.908 425.299,285.155 425.76,285.643C426.077,285.979 426.285,286.434 426.323,287.01L426.633,291.678L431.601,291.349C432.306,291.302 432.837,291.512 433.209,291.885C433.567,292.242 433.783,292.767 433.826,293.418C433.868,294.048 433.711,294.59 433.393,294.99C433.067,295.401 432.567,295.675 431.891,295.72L426.924,296.05L427.841,309.857C427.9,310.75 428.107,311.384 428.494,311.775C428.853,312.136 429.36,312.258 429.984,312.216C430.945,312.152 431.579,311.836 432.207,311.409C432.216,311.402 432.226,311.396 432.236,311.39C432.555,311.204 432.88,311.08 433.21,311.058C434.05,311.003 434.785,311.54 435.172,312.347C435.351,312.698 435.434,313.107 435.458,313.469C435.509,314.239 435.225,315.029 434.429,315.524L434.411,315.534C433.151,316.249 431.963,316.69 430.032,316.818C428.142,316.944 426.48,316.561 425.244,315.561C424.01,314.561 423.183,312.938 423.022,310.52L422.083,296.371L419.25,296.56C418.561,296.605 418.05,296.39 417.693,296.017C417.356,295.664 417.155,295.152 417.113,294.528C417.063,293.771 417.267,293.127 417.711,292.706C418.015,292.417 418.438,292.223 419.003,292.185L421.792,292ZM441.56,293.615C442.968,291.408 445.179,289.846 448.814,289.605C451.518,289.425 453.646,290.125 455.15,291.549C456.642,292.962 457.53,295.105 457.714,297.879C457.714,297.879 458.675,312.356 458.675,312.356C458.715,312.955 458.559,313.439 458.277,313.814C457.873,314.351 457.187,314.672 456.359,314.727C455.647,314.774 455.047,314.623 454.608,314.302C454.146,313.962 453.841,313.431 453.791,312.68C453.791,312.68 452.884,299.015 452.884,299.015C452.751,297.022 452.202,295.579 451.118,294.8C450.413,294.292 449.489,294.079 448.344,294.156C446.119,294.303 444.444,295.461 443.251,297.292C442.345,298.712 441.977,299.895 442.08,301.448C442.08,301.448 442.875,313.405 442.875,313.405C442.924,314.153 442.705,314.716 442.314,315.11C441.937,315.491 441.381,315.721 440.686,315.768C439.798,315.827 439.074,315.595 438.609,315.118C438.284,314.784 438.073,314.325 438.033,313.727C438.033,313.727 436.014,283.321 436.014,283.321C435.975,282.739 436.125,282.265 436.406,281.895C436.804,281.373 437.49,281.049 438.376,280.99C439.068,280.944 439.647,281.086 440.068,281.399C440.511,281.727 440.805,282.246 440.855,283L441.56,293.615ZM378.849,298.556C382.932,298.285 385.543,301.619 385.859,306.383C386.189,311.354 384.009,315.055 379.92,315.327C376.199,315.574 373.335,312.618 372.998,307.537C372.654,302.366 374.76,298.828 378.849,298.556ZM483.716,307.381C482.476,310.421 480.078,313.537 474.277,313.923C470.612,314.166 467.636,313.05 465.508,310.918C463.399,308.806 462.12,305.681 461.865,301.85C461.56,297.248 462.771,293.389 465.33,290.928C467.051,289.272 469.385,288.239 472.301,288.045C478.826,287.612 482.852,292.436 483.688,298.261L483.715,298.64C483.776,299.561 483.558,300.275 483.148,300.778C482.725,301.297 482.089,301.608 481.27,301.663L466.753,302.627C467.07,305.353 468.081,307.431 469.729,308.62C470.876,309.447 472.327,309.833 474.041,309.719C476.876,309.531 478.355,308.006 479.162,305.856L479.169,305.838C479.595,304.822 480.298,304.414 481.063,304.363C481.407,304.34 481.759,304.409 482.113,304.485C483.075,304.7 483.86,305.349 483.926,306.347C483.949,306.686 483.91,307.027 483.716,307.381ZM145.816,311.979L144.523,302.846L144.511,302.68C144.426,301.397 145.536,300.438 147.087,300.335C148.691,300.229 149.865,301.036 149.95,302.319L149.96,302.484L149.886,311.708C149.893,312.199 149.753,312.583 149.52,312.877C149.185,313.3 148.638,313.545 147.967,313.59C147.295,313.634 146.721,313.463 146.333,313.089C146.063,312.828 145.873,312.466 145.816,311.979ZM497.894,286.475C498.246,286.409 498.557,286.387 498.87,286.366C499.543,286.322 500.044,286.376 500.679,286.468C501.318,286.513 501.768,286.738 502.075,287.066C502.386,287.397 502.557,287.846 502.593,288.379C502.608,288.616 502.583,288.905 502.553,289.204C502.412,290.357 501.673,291.343 500.535,291.419C500.364,291.43 500.194,291.434 500.019,291.394C499.453,291.311 498.921,291.226 498.092,291.28C496.418,291.431 495.196,292.386 494.299,293.707C493.344,295.055 492.84,296.574 492.911,298.244C492.911,298.244 493.693,310.03 493.693,310.03C493.733,310.629 493.578,311.112 493.3,311.486C492.898,312.026 492.22,312.345 491.419,312.398C490.531,312.457 489.807,312.226 489.342,311.749C489.017,311.415 488.806,310.956 488.767,310.358C488.767,310.358 487.385,289.56 487.385,289.56C487.347,288.978 487.497,288.504 487.778,288.134C488.176,287.612 488.861,287.288 489.748,287.23C491.111,287.139 492.218,287.815 492.312,289.233L492.349,289.783C493.44,288.189 495.265,286.749 497.894,286.475ZM510.136,304.234C508.189,304.363 506.78,305.811 506.919,307.908C507.059,310.005 508.646,311.254 510.594,311.125C512.441,311.002 513.95,309.548 513.81,307.45C513.671,305.353 511.984,304.111 510.136,304.234ZM411.343,301.946C410.674,299.18 408.811,296.395 405.187,296.636C401.55,296.877 399.683,299.346 399.286,302.974L411.217,302.182C411.263,302.179 411.318,302.168 411.355,302.16L411.343,301.946ZM507.694,300.835L505.644,279.011L505.643,278.997C505.545,277.527 506.594,276.46 508.327,276.345C510.02,276.232 511.208,277.158 511.253,278.638C511.253,278.638 512.108,300.543 512.108,300.551C512.137,301.839 511.146,302.552 510.029,302.627C508.855,302.705 507.785,302.117 507.694,300.835ZM478.732,297.47C478.062,294.704 476.199,291.92 472.575,292.16C468.938,292.402 467.071,294.871 466.674,298.499L478.605,297.706C478.652,297.703 478.706,297.693 478.743,297.685L478.732,297.47Z" style="fill:rgb(252,96,98);"/>
        </g>
    </g>
</svg>
