<?xml version="1.0" standalone="no"?>
<!DOCTYPE svg PUBLIC "-//W3C//DTD SVG 20010904//EN"
 "http://www.w3.org/TR/2001/REC-SVG-20010904/DTD/svg10.dtd">
<svg version="1.0" xmlns="http://www.w3.org/2000/svg"
 width="700.000000pt" height="700.000000pt" viewBox="0 0 700.000000 700.000000"
 preserveAspectRatio="xMidYMid meet">
<metadata>
Created by potrace 1.11, written by Peter Selinger 2001-2013
</metadata>
<g transform="translate(0.000000,700.000000) scale(0.100000,-0.100000)"
fill="#000000" stroke="none">
<path d="M3278 6995 c-2 -1 -41 -5 -88 -9 -81 -6 -116 -10 -185 -21 -16 -3
-48 -7 -70 -10 -82 -11 -292 -58 -404 -90 -191 -55 -540 -192 -621 -245 -8 -6
-25 -14 -38 -20 -90 -39 -373 -220 -512 -329 -177 -137 -416 -366 -535 -511
-57 -70 -136 -173 -181 -235 -64 -89 -184 -281 -184 -294 0 -5 -4 -11 -9 -13
-13 -5 -164 -318 -206 -428 -86 -223 -138 -403 -180 -620 -49 -256 -60 -375
-59 -680 0 -194 7 -335 19 -398 1 -9 6 -42 9 -73 4 -31 9 -67 11 -80 3 -13 7
-38 9 -54 18 -130 141 -565 190 -670 8 -16 26 -59 41 -95 35 -83 147 -307 180
-360 14 -22 25 -42 25 -44 0 -5 144 -225 157 -241 5 -5 28 -36 51 -68 217
-294 551 -609 867 -819 169 -112 462 -268 590 -314 28 -9 55 -21 60 -25 31
-23 410 -138 535 -163 14 -3 36 -7 50 -10 23 -5 82 -16 170 -31 121 -21 307
-33 530 -33 264 0 380 8 550 38 30 5 66 11 80 14 113 19 356 79 430 106 14 5
66 23 115 40 50 17 104 38 120 45 17 7 59 25 95 40 153 64 356 174 525 285
119 78 285 201 285 212 0 4 6 8 14 8 8 0 16 4 18 8 2 5 35 36 73 69 161 138
327 317 495 533 139 179 313 483 419 731 55 129 143 387 166 488 21 89 65 306
69 341 3 25 7 54 10 65 3 17 10 87 22 220 4 52 4 479 0 505 -3 14 -8 61 -11
105 -11 144 -61 411 -107 569 -11 38 -21 76 -23 85 -7 32 -78 229 -122 336
-90 220 -258 518 -408 720 -188 254 -460 530 -700 711 -107 81 -290 204 -303
204 -6 0 -12 4 -14 8 -9 22 -322 179 -498 250 -237 95 -519 174 -745 208 -27
4 -52 8 -55 9 -3 1 -41 5 -85 10 -44 4 -89 10 -100 12 -25 4 -532 12 -537 8z"/>
</g>
</svg>
