<svg viewBox="0 0 922 443" xmlns="http://www.w3.org/2000/svg" fill-rule="evenodd" clip-rule="evenodd" stroke-linejoin="round" stroke-miterlimit="2"><path d="M300.973 84.586c-.171 4.014-.48 8.084-.926 12.21-1.265 11.724-3.334 23.6-6.209 35.626-2.87 12.012-6.445 24.058-10.726 36.14a511.703 511.703 0 0 1-13.761 34.778c3.769 12.876 8.147 22.899 13.17 30.05 4.726 6.73 9.88 10 15.65 9.496 3.895-.34 7.49-2.243 10.827-5.626 3.582-3.634 6.797-7.842 9.647-12.625 2.884-4.839 5.365-9.723 7.441-14.652 2.097-4.979 3.716-8.972 4.864-12.007.484-1.227 1.19-2.244 2.112-3.058.13-.68.272-1.356.426-2.027 1.383-6.018 3.535-11.342 6.444-15.976 2.942-4.689 6.505-8.49 10.682-11.412 4.254-2.975 8.908-4.68 13.96-5.122 3.812-.334 7.333.036 10.567 1.092 3.257 1.063 6.053 2.611 8.397 4.633 2.332 2.01 4.22 4.294 5.667 6.85 1.482 2.615 2.335 5.29 2.573 8.014.223 2.547.108 4.949-.336 7.204-.446 2.256-1.091 4.266-1.928 6.032-.89 1.873-1.974 3.383-3.235 4.546-1.445 1.332-2.963 2.024-4.512 2.16-2.378.208-4.359-.426-5.96-1.837-1.592-1.4-2.497-3.203-2.69-5.424-.107-1.212.084-2.294.535-3.25.339-.717.731-1.47 1.18-2.254.354-.623.646-1.38.887-2.266.241-.885.28-2.005.162-3.359-.154-1.762-1.172-3.248-2.934-4.531-1.913-1.395-4.246-1.938-6.982-1.699-2.658.232-5.122 1.274-7.401 3.1-2.402 1.923-4.423 4.398-6.074 7.414-1.694 3.095-2.952 6.67-3.786 10.724-.84 4.078-1.064 8.338-.676 12.777.371 4.24 1.238 8.23 2.607 11.967 1.346 3.672 3.157 6.87 5.443 9.59a22.519 22.519 0 0 0 8.132 6.134c3.176 1.423 6.852 1.93 11.022 1.566 5.549-.485 10.6-1.93 15.152-4.347 4.615-2.45 8.766-5.41 12.451-8.882 3.704-3.489 6.913-7.223 9.624-11.205 2.744-4.029 5.057-7.807 6.937-11.333 1.866-3.502 3.299-6.54 4.293-9.119.968-2.511 1.537-4.08 1.688-4.713l.028-.104c.087-.286.188-.56.306-.824a18637.4 18637.4 0 0 1-2.357-27.651c-1.56-18.461-2.79-35.65-3.693-51.567-.905-15.939-1.353-30.397-1.347-43.376.007-13.058.751-24.266 2.227-33.628 1.507-9.558 3.863-17.032 7.016-22.439 3.403-5.835 8.067-8.958 13.92-9.47 4.967-.434 9.279.585 12.946 3.005 3.56 2.35 6.584 5.69 9.046 10.045 2.382 4.211 4.278 9.19 5.675 14.94 1.375 5.656 2.34 11.65 2.894 17.982 1.118 12.802 1.05 25.462-.207 37.98a277.187 277.187 0 0 1-6.193 36.776 317.305 317.305 0 0 1-10.642 35.335 584.299 584.299 0 0 1-13.332 33.273l2.422 27.719.008.072a316.175 316.175 0 0 1 2.236-5.4 423.187 423.187 0 0 1 6.142-13.757 272.288 272.288 0 0 1 7.11-14.118 162.849 162.849 0 0 1 8.05-13.38c2.95-4.267 6.041-7.413 9.242-9.468 3.31-2.127 6.504-3.299 9.563-3.566 3.127-.273 5.916.136 8.371 1.195a16.5 16.5 0 0 1 6.247 4.656c1.64 1.97 2.966 4.317 3.968 7.047.977 2.663 1.609 5.585 1.887 8.767.22 2.526.272 5.924.147 10.195-.12 4.113.015 8.39.402 12.832a70.88 70.88 0 0 0 1.046 7.433c.46 2.35 1.095 4.432 1.914 6.242.734 1.621 1.722 2.91 2.988 3.846 1.17.866 2.642 1.175 4.395 1.022 2.283-.199 4.504-1.056 6.675-2.54 2.33-1.593 4.567-3.645 6.716-6.149 2.206-2.57 4.283-5.394 6.234-8.471a114.882 114.882 0 0 0 2.036-3.334 96.011 96.011 0 0 1 1.08-3.579c2.704-8.353 6.453-16.054 11.243-23.104 4.794-7.057 10.564-13.345 17.314-18.863 6.722-5.496 14.39-10.132 23.009-13.9 1.126-.492 2.37-.725 3.742-.654 1.905.098 3.658.824 5.22 2.268 1.681 1.556 2.516 3.555 2.387 6.045-.082 1.578-.609 3.03-1.612 4.344a8.337 8.337 0 0 1-3.557 2.702l-4.404 1.898c-2.307.991-5.07 2.56-8.296 4.687-3.311 2.183-6.873 5-10.69 8.443-3.616 3.262-6.995 7.26-10.15 11.988a7.822 7.822 0 0 1-.284 1.055c-.352.889-1.022 2.717-2.014 5.485-1.02 2.845-2.437 6.167-4.255 9.964a137.382 137.382 0 0 1-4.11 7.888c-1.28 5.216-2.075 10.939-2.396 17.164-.414 8.023.062 15.142 1.46 21.356 1.38 6.138 3.348 11.553 5.923 16.236 2.542 4.622 5.52 8.595 8.95 11.908 3.477 3.36 7.088 6.19 10.838 8.48 3.765 2.3 7.534 4.166 11.308 5.595 3.81 1.443 7.327 2.543 10.55 3.296 3.205.748 5.93 1.257 8.175 1.519 2.24.261 3.722.414 4.447.451 9.048.467 17.767-.506 26.158-2.926 8.302-2.395 15.851-6.368 22.65-11.915 6.852-5.59 12.735-12.863 17.68-21.796 4.184-7.557 7.403-16.403 9.68-26.529a90.756 90.756 0 0 1-10.27 2.472c-5.715 1.03-11.657 1.39-17.824 1.071-8.424-.435-16.552-1.95-24.387-4.546-7.96-2.637-14.93-6.366-20.916-11.169-6.075-4.873-10.864-10.809-14.364-17.81-3.527-7.051-5.091-15.153-4.618-24.317.383-7.42 2.046-14.004 4.947-19.765 2.917-5.793 6.728-10.662 11.421-14.617 4.69-3.954 10.03-6.88 16.027-8.771 5.937-1.874 12.106-2.65 18.507-2.32 5.16.267 10.31 1.137 15.448 2.615a62.32 62.32 0 0 1 14.79 6.432c4.689 2.8 9.02 6.251 12.993 10.355 3.986 4.119 7.41 8.979 10.26 14.588 2.815 5.541 4.937 11.788 6.35 18.748 1.23 6.062 1.76 12.72 1.572 19.975.9-.657 1.78-1.328 2.639-2.016a83.982 83.982 0 0 0 3.736-3.16c.25-.226.486-.445.71-.656.586-7.215 2.699-13.785 6.315-19.715 3.78-6.194 8.777-11.702 15.007-16.509 6.104-4.708 13.164-8.716 21.187-12.01 7.889-3.238 16.273-5.845 25.155-7.817 8.836-1.963 17.953-3.306 27.349-4.03 9.38-.723 18.575-.852 27.581-.387 11.291.582 21.09 1.777 29.393 3.572 8.39 1.813 15.53 3.966 21.438 6.441 6.093 2.55 11.041 5.365 14.871 8.408 3.847 3.063 6.92 6.055 9.262 9 5.644 7.341 8.223 15.505 7.766 24.484-.15 2.94-.59 5.739-1.321 8.397-.52 1.944-1.558 3.413-3.02 4.464-1.514 1.089-3.152 1.561-4.895 1.472-2.483-.129-4.402-1.093-5.837-2.756-1.453-1.686-2.096-3.588-1.99-5.684.07-1.397.282-2.762.634-4.098.22-.846.352-1.681.396-2.506.238-4.739-1.004-9.064-3.724-12.979-2.915-4.182-7.185-7.756-12.767-10.789-5.89-3.202-13.118-5.777-21.676-7.76-8.734-2.023-18.516-3.309-29.344-3.867a196.506 196.506 0 0 0-25.204.335c-8.479.65-16.645 1.805-24.5 3.464-7.793 1.646-15.113 3.836-21.956 6.574-6.722 2.688-12.615 5.888-17.67 9.614-4.906 3.614-8.836 7.696-11.769 12.264-2.816 4.389-4.356 9.27-4.632 14.641-.206 3.967.444 7.512 2.011 10.625 1.62 3.217 3.924 6.057 6.895 8.534 3.14 2.618 6.89 4.903 11.237 6.871 4.515 2.044 9.432 3.81 14.75 5.304a192.773 192.773 0 0 0 16.921 3.914 405.173 405.173 0 0 0 17.927 2.915l17.563 2.399c8.784 1.222 16.644 2.435 23.582 3.64 7.065 1.226 13.263 2.645 18.607 4.258 9.43 2.901 16.253 6.81 20.593 11.53 4.623 5.036 6.824 11.51 6.41 19.483-.387 7.46-2.8 13.904-7.21 19.352-4.244 5.247-9.88 9.573-16.932 12.937-6.805 3.249-14.676 5.576-23.629 6.954-8.796 1.355-18.174 1.78-28.131 1.266-10.775-.555-20.205-1.774-28.29-3.638-8.09-1.867-14.844-3.828-20.262-5.87-5.535-2.086-9.735-3.977-12.61-5.646-2.677-1.554-4.236-2.493-4.693-2.794l.135.091c-2.515-1.57-3.755-3.905-3.592-7.069.126-2.441 1.13-4.352 2.93-5.77 1.725-1.36 3.571-1.93 5.498-1.83a7.605 7.605 0 0 1 3.944 1.306c.555.299 1.834 1.031 3.831 2.21 2.358 1.39 5.91 2.954 10.642 4.72 4.866 1.818 10.913 3.541 18.138 5.182 7.234 1.643 15.694 2.707 25.38 3.206 9.558.493 18.045.161 25.461-1.017 7.229-1.148 13.354-2.93 18.372-5.386 4.72-2.312 8.364-5.088 10.891-8.4 2.369-3.108 3.654-6.538 3.848-10.3.105-2.046-.123-3.84-.784-5.368a11.64 11.64 0 0 0-2.817-4.002c-1.356-1.267-3.002-2.362-4.93-3.302-2.114-1.033-4.43-1.93-6.991-2.713a94.195 94.195 0 0 0-8.884-2.336 197.227 197.227 0 0 0-9.99-1.867c-3.464-.558-6.949-1.08-10.455-1.564a3628.72 3628.72 0 0 1-10.423-1.456l-17.547-2.396c-14.033-1.889-26.233-4.329-36.6-7.309-10.59-3.045-19.338-6.728-26.256-11.011-7.25-4.49-12.56-9.727-15.997-15.64a34.438 34.438 0 0 1-2.046-4.137 117.032 117.032 0 0 1-5.899 3.974 94.62 94.62 0 0 1-5.693 3.327c-2.191 14.63-6.06 27.337-11.57 38.132-5.805 11.373-12.955 20.735-21.421 28.106-8.521 7.417-18.101 12.795-28.737 16.135-10.559 3.316-21.673 4.68-33.344 4.078-6.354-.328-12.732-1.333-19.134-3.016a83.6 83.6 0 0 1-18.413-7.252c-5.858-3.152-11.277-7.043-16.257-11.676-5.016-4.666-9.306-10.14-12.863-16.43-3.531-6.242-6.207-13.282-8.011-21.12-1.361-5.92-2.07-12.345-2.113-19.277a48.74 48.74 0 0 1-3.04 2.155c-4.002 2.609-8.305 4.112-12.905 4.513-5.384.471-9.805-.342-13.282-2.338-3.458-1.985-6.24-4.645-8.35-7.98-2.052-3.242-3.576-6.93-4.564-11.063-.962-4.018-1.609-7.951-1.946-11.801a87.91 87.91 0 0 1-.307-6.364 248.562 248.562 0 0 1-.006-6.63c.027-2.16.038-4.184.036-6.071-.004-1.833-.058-3.374-.168-4.622-.242-2.77-.638-4.654-1.483-5.57-.565-.612-1.136-.972-1.792-.915-1.381.12-2.814 1.17-4.443 2.92-1.962 2.108-3.971 4.826-6.037 8.147-2.106 3.387-4.176 7.172-6.214 11.355a575.139 575.139 0 0 0-5.946 12.588 276.702 276.702 0 0 0-5.102 11.826c-1.51 3.757-2.754 6.869-3.729 9.335-2.014 5.096-4.257 8.558-6.61 10.462-2.525 2.044-4.876 3.097-6.998 3.283-3.997.35-7.189-.983-9.592-3.956-2.22-2.745-3.536-6.19-3.9-10.356l-.858-9.814a139.699 139.699 0 0 1-4.775 6.966c-3.366 4.617-7.312 8.926-11.84 12.924-4.545 4.013-9.723 7.444-15.539 10.29-5.857 2.865-12.343 4.613-19.462 5.236-6.419.56-12.206-.11-17.364-1.986-5.182-1.885-9.713-4.796-13.592-8.733-3.846-3.903-6.92-8.634-9.216-14.198a53.267 53.267 0 0 1-1.187-3.163 129.344 129.344 0 0 1-5.188 8.766c-2.547 3.95-5.376 7.533-8.488 10.753-3.148 3.258-6.57 5.976-10.263 8.156-3.791 2.238-7.922 3.553-12.394 3.944-6.916.605-13.035-1.022-18.363-4.853-5.153-3.705-9.703-8.748-13.632-15.144-2.758-4.49-5.236-9.467-7.43-14.936-.347.75-.709 1.518-1.086 2.306-1.809 3.778-3.957 7.75-6.445 11.917a75.787 75.787 0 0 1-8.632 11.745c-3.272 3.652-6.874 6.742-10.804 9.273-4.052 2.61-8.43 4.12-13.138 4.53-6.733.588-12.576-1.083-17.537-4.978-3.91-3.068-7.09-6.905-9.533-11.517-2.925 5.2-6.435 9.536-10.515 13.02-5.066 4.322-10.316 6.686-15.719 7.158-4.255.373-8.174-.077-11.76-1.328-3.612-1.26-6.758-3.205-9.439-5.83-2.647-2.593-4.797-5.716-6.441-9.375-.216-.478-.42-.963-.613-1.455a89.86 89.86 0 0 1-7.114 9.503 69.084 69.084 0 0 1-16.782 14.235c-6.407 3.876-13.68 6.178-21.823 6.89a54.654 54.654 0 0 1-17.425-1.251c-5.767-1.36-10.953-3.813-15.56-7.355-1.708-1.121-3.196-2.35-4.465-3.682-1.211-1.268-2.206-2.48-2.988-3.63a2.727 2.727 0 0 1-.655-.996 7.511 7.511 0 0 1-.855-1.505c1.103 14.973 2.09 29.34 2.963 43.104 1.006 15.867 1.646 30.625 1.916 44.276.271 13.68.077 26.096-.58 37.246-.662 11.247-2.07 20.939-4.21 29.079-2.193 8.34-5.245 14.858-9.103 19.578-4.044 4.948-9.28 7.704-15.71 8.267-1.988.173-4.305-.024-6.95-.617-2.724-.612-5.36-2.088-7.875-4.479-2.394-2.274-4.561-5.624-6.453-10.08-1.83-4.316-3.092-10.19-3.743-17.63-.807-9.236-.606-20.038.613-32.406 1.211-12.302 3.304-25.417 6.28-39.344 2.97-13.904 6.692-28.226 11.165-42.967a502.073 502.073 0 0 1 15.137-42.845 765.64 765.64 0 0 1-.856-10.72 690.64 690.64 0 0 0-.542-7.005 7.983 7.983 0 0 1-3.106.904c-2.422.212-4.41-.504-5.986-2.09-1.516-1.527-2.336-3.262-2.504-5.184-.083-.952.02-1.99.332-3.114l.029-.092c2.03-6.042 3.507-11.741 4.425-17.1.922-5.385 1.556-10.102 1.899-14.15.338-3.996.463-7.152.366-9.47a442.45 442.45 0 0 0-.158-3.64c-.184-2.108.42-4.007 1.83-5.687 1.4-1.669 3.213-2.608 5.445-2.803 2.098-.184 3.98.388 5.647 1.722 1.68 1.344 2.631 3.136 2.828 5.391l3.745 42.85c1.145-2.367 2.293-4.72 3.442-7.056 2.162-4.395 4.5-8.361 7.014-11.901 2.575-3.629 5.437-6.626 8.576-9 3.274-2.474 7.022-3.9 11.249-4.27 3.987-.348 7.704.279 11.152 1.868 3.396 1.566 6.394 3.86 8.988 6.894 2.544 2.976 4.61 6.59 6.182 10.851 1.544 4.187 2.534 8.73 2.963 13.633.893 10.216-.202 19.09-3.235 26.63-2.204 5.475-4.932 10.082-8.17 13.831 4.147-.895 7.946-2.487 11.392-4.782 4.806-3.197 9.048-7.135 12.729-11.807 3.726-4.73 6.986-9.924 9.782-15.582 2.83-5.726 5.3-11.258 7.411-16.597.56-1.56 1.466-2.802 2.696-3.738.08-.061.163-.121.246-.178 2.18-5.137 4.933-9.631 8.251-13.488 4.195-4.875 8.966-8.669 14.307-11.39 5.362-2.731 10.628-4.312 15.793-4.764 3.539-.309 6.835-.103 9.888.608 2.997.698 5.579 1.52 7.75 2.46 2.228.964 3.955 1.892 5.19 2.77 1.228.87 1.901 1.363 2.025 1.467.039.033.077.067.113.103 1.653 1.64 2.523 3.435 2.69 5.342.183 2.086-.406 4.002-1.796 5.736-1.412 1.759-3.185 2.716-5.303 2.9-2.232.195-4.18-.415-5.848-1.816-.207-.173-.67-.487-1.382-.951-.721-.472-1.69-.94-2.897-1.417-1.248-.493-2.714-.888-4.397-1.193-1.671-.302-3.546-.356-5.624-.174-3.121.273-6.379 1.28-9.78 2.998-3.413 1.723-6.45 4.21-9.12 7.447-2.71 3.284-4.855 7.3-6.456 12.037-1.606 4.753-2.116 10.268-1.569 16.543a29.116 29.116 0 0 0 1.12 5.789c.548 1.842 1.368 3.492 2.464 4.947 1.05 1.393 2.4 2.477 4.044 3.26 1.657.79 3.649 1.052 5.967.85 1.698-.148 3.591-.922 5.71-2.248 2.232-1.397 4.299-3.443 6.22-6.116 1.988-2.768 3.704-6.19 5.164-10.26 1.47-4.096 2.322-8.873 2.578-14.34.108-1.975.864-3.694 2.282-5.152 1.405-1.446 3.141-2.265 5.215-2.447 2.004-.175 3.836.435 5.477 1.88 1.576 1.385 2.5 3.044 2.812 4.99.283 2.02.746 4.856 1.39 8.51a51.269 51.269 0 0 0 3.033 10.483c1.352 3.318 3.185 6.142 5.51 8.465 2.115 2.114 4.874 2.98 8.25 2.685 2.283-.2 4.485-1.028 6.613-2.46 2.282-1.537 4.473-3.507 6.578-5.902 2.153-2.45 4.173-5.204 6.062-8.262 1.914-3.099 3.641-6.208 5.181-9.327 1.541-3.122 2.88-6.12 4.016-8.994a388.392 388.392 0 0 0 2.89-7.504c.541-1.53 1.408-2.757 2.587-3.691a234.009 234.009 0 0 1-2.27-9.563c-1.834-8.503-3.293-16.792-4.38-24.868-1.085-8.063-1.902-15.225-2.448-21.486-.793-9.066-1.317-18.483-1.573-28.25-.192-7.358-.174-14.61.052-21.76-16.163.898-27.29.015-27.307.013-4.542-.36-7.935-4.341-7.574-8.883.361-4.54 4.342-7.934 8.883-7.573 0 0 11.075.881 26.93-.116a265.575 265.575 0 0 1 2-17.348c1.283-8.573 3.042-16.143 5.27-22.71 2.277-6.715 5.105-12.12 8.453-16.231 3.574-4.39 7.879-6.772 12.879-7.21 3.89-.339 7.474.277 10.758 1.831 3.277 1.55 6.178 4.266 8.655 8.197 2.345 3.722 4.36 8.644 6.018 14.78 1.624 6.014 2.828 13.438 3.6 22.273.118 1.36.22 2.726.304 4.098 17.97-7.48 34.32-19.317 42.902-38.43 1.867-4.155 6.756-6.015 10.912-4.148a8.259 8.259 0 0 1 4.148 10.911c-11.373 25.324-33.72 40.514-57.82 49.314zM36.59 291.253a493.27 493.27 0 0 0-8.148 27.877c-3.19 12.255-5.778 24.026-7.758 35.311-1.978 11.27-3.349 21.788-4.112 31.55-.758 9.703-.825 18.166-.194 25.39.155 1.773.429 3.692.819 5.759.374 1.979.932 3.792 1.68 5.436.69 1.517 1.578 2.767 2.683 3.737.922.81 2.086 1.118 3.47.998 2.981-.261 5.264-2.506 7.105-6.446 2.13-4.556 3.718-10.599 4.8-18.118 1.102-7.676 1.812-16.447 2.133-26.312.322-9.909.363-20.252.123-31.03a920.76 920.76 0 0 0-1.306-32.566 4353.85 4353.85 0 0 0-1.295-21.586zm30.495-33.938c.816.68 1.765 1.274 2.846 1.792.956.458 2.014.624 3.17.523 2.378-.208 4.684-1.148 6.936-2.781 2.358-1.711 4.401-4.056 6.15-7.017 1.796-3.046 3.148-6.677 4.07-10.885.93-4.25 1.169-8.91.726-13.977-.32-3.669-.966-6.772-1.958-9.304-.958-2.448-2.06-4.42-3.331-5.897-1.192-1.386-2.405-2.39-3.666-2.978-1.14-.531-2.203-.78-3.203-.693-2.49.217-4.83 1.82-7.14 4.623-2.62 3.18-5.14 7.145-7.571 11.888-2.476 4.832-4.882 10.141-7.222 15.927a572.277 572.277 0 0 1-7.041 16.674l.13 1.755a8.274 8.274 0 0 1 1.14-2.565c.247-.523.562-.844.837-1.038l.024-.026c1.287-1.38 2.773-2.193 4.437-2.48.05-.008.1-.015.152-.019l.484-.042c.649-.057 1.164-.02 1.549.06.196.015.376.054.539.112.455.02.97.128 1.544.354.055.022.11.047.164.075.13.037.258.089.38.155a10.488 10.488 0 0 1 3.18 2.67l.066.088a19.666 19.666 0 0 0 2.608 3.006zm-6.826-5.987a1.74 1.74 0 0 1-.07.005l.07-.005zm632.6-38.583c.243-2.19.42-4.382.533-6.578.531-10.294-.482-19.183-3.113-26.66-2.585-7.346-6.105-13.433-10.607-18.236-4.455-4.753-9.549-8.326-15.292-10.708-5.818-2.411-11.689-3.777-17.615-4.082-4.432-.23-8.643.276-12.631 1.53-3.916 1.228-7.39 3.125-10.42 5.696-3.022 2.562-5.455 5.793-7.32 9.673-1.906 3.963-2.968 8.546-3.236 13.74-.256 4.965.552 9.796 2.42 14.491 1.875 4.717 4.811 8.96 8.785 12.743 4.065 3.87 9.228 7.03 15.463 9.52 6.377 2.548 13.887 4.022 22.519 4.467 5.846.301 11.458-.129 16.837-1.299a78.323 78.323 0 0 0 13.677-4.297zM284.75 89.549c-9.19 2.32-18.291 3.863-26.738 4.873a473.05 473.05 0 0 0-.036 23.608c.206 9.15.702 18.222 1.488 27.215a390.266 390.266 0 0 0 2.207 19.701 464.984 464.984 0 0 0 1.77 11.675 370.664 370.664 0 0 0 8.018-22.812 340.922 340.922 0 0 0 8.154-30.615c2.224-10.256 3.84-20.405 4.845-30.446.108-1.073.204-2.138.292-3.199zm154.217 67.968a581.218 581.218 0 0 0 6.967-21.85c2.87-9.671 5.207-19.269 7.012-28.793a243.18 243.18 0 0 0 3.694-28.79c.658-9.663.535-19.66-.368-29.99-.148-1.705-.466-4.414-.952-8.126a69.351 69.351 0 0 0-2.39-11.033c-1.084-3.599-2.527-6.706-4.346-9.317-1.495-2.146-3.387-3.167-5.731-2.962-1.8.157-3.09 1.667-4.19 4.196-1.392 3.206-2.469 7.486-3.255 12.834-.807 5.481-1.323 11.822-1.551 19.021-.23 7.25-.261 14.911-.095 22.989.167 8.09.486 16.382.958 24.877.473 8.506 1.006 16.764 1.597 24.772.592 8.01 1.193 15.506 1.803 22.487l.847 9.685zM285.246 72.33a135.238 135.238 0 0 0-.454-7.952c-1.083-12.386-2.813-21.18-5.276-26.359-2.078-4.372-4.292-6.714-7.127-6.466-1.78.155-3.239 1.705-4.677 4.307-1.761 3.188-3.286 7.46-4.597 12.805-1.343 5.472-2.44 11.886-3.296 19.242a260.04 260.04 0 0 0-.949 9.795c8.397-1.12 17.394-2.82 26.376-5.372z" fill="#fc6062" fill-rule="nonzero"/><path d="M198.586 306.446c1.38-2.282 3.529-3.815 6.983-4.136 2.689-.25 4.983.334 6.817 1.626 2.717 1.912 4.438 5.399 4.876 10.126.735 7.913-2.84 13.49-9.465 14.104-3.276.304-5.679-.75-7.442-2.664l.036.356.87 9.376c.065.698-.137 1.26-.528 1.669-.371.389-.93.644-1.644.711-.736.068-1.342-.08-1.78-.39-.47-.331-.771-.846-.837-1.546l-2.76-29.746c-.068-.726.138-1.288.537-1.691.376-.38.942-.624 1.678-.693.8-.074 1.497.12 1.961.553.328.307.552.736.604 1.302l.072.767.022.276zM94.68 336.058c.056.595.27 1.046.591 1.37.465.47 1.18.687 2.072.605.71-.067 1.28-.31 1.661-.697.403-.409.62-.98.55-1.73l-2.812-30.3c-.07-.75-.389-1.272-.86-1.6-.447-.31-1.05-.444-1.761-.379-.892.084-1.554.428-1.925.975-.256.379-.384.861-.328 1.456l2.812 30.3zm29.903-6.095c-1.16 3.072-3.475 6.25-9.264 6.787-3.657.34-6.661-.698-8.844-2.772-2.164-2.057-3.525-5.147-3.88-8.97-.427-4.593.683-8.483 3.177-11.01 1.677-1.7 3.982-2.794 6.893-3.065 6.511-.604 10.663 4.114 11.651 9.914l.037.378c.085.92-.114 1.64-.51 2.152-.41.531-1.037.859-1.855.934l-14.486 1.345c.388 2.716 1.452 4.768 3.132 5.914 1.168.796 2.629 1.143 4.34.985 2.828-.263 4.267-1.827 5.016-3.997l.008-.017c.399-1.028 1.09-1.454 1.854-1.525.343-.031.697.027 1.053.095.966.189 1.77.817 1.861 1.813.032.338.002.68-.183 1.039zm4.941-19.993l-.432-4.658c-.067-.721.135-1.293.53-1.707.375-.393.944-.651 1.681-.72.832-.078 1.548.15 2.021.626.326.328.546.777.599 1.352l.433 4.658 4.957-.459c.704-.065 1.24.13 1.622.494.367.347.596.866.657 1.516.058.629-.085 1.175-.392 1.583-.315.42-.808.706-1.482.769l-4.957.46 1.28 13.778c.081.892.305 1.52.702 1.9.369.352.879.46 1.501.402.96-.089 1.585-.421 2.201-.865a.48.48 0 0 1 .029-.02c.314-.194.635-.326.965-.357.838-.077 1.587.44 1.995 1.237.188.346.282.753.315 1.114.071.769-.192 1.566-.974 2.082l-.018.01c-1.241.748-2.417 1.22-4.344 1.399-1.886.175-3.558-.164-4.82-1.131-1.26-.968-2.128-2.568-2.353-4.981l-1.31-14.12-2.826.262c-.689.065-1.205-.137-1.572-.5-.345-.345-.56-.851-.619-1.475-.07-.754.118-1.403.55-1.836.298-.297.714-.502 1.278-.555l2.783-.258zm37.905 10.844l-2.472-.243c-3.364-.338-5.582-1.128-6.915-2.594-.911-1.004-1.426-2.327-1.589-4.073-.382-4.124 2.821-7.34 8.668-7.883 4.998-.464 8.368 1.406 9.799 4.588l.015.04c.072.205.14.412.16.622.095 1.034-.712 1.866-1.666 2.23l-.034.011c-.24.071-.528.144-.771.167-.99.091-1.999-.296-2.366-1.304-.655-1.67-2.442-2.333-4.616-2.132-3.057.285-4.47 1.538-4.322 3.124.06.655.196 1.158.555 1.542.595.635 1.711.94 3.725 1.18l2.693.308c3.548.4 5.845 1.135 7.221 2.637.94 1.027 1.471 2.417 1.649 4.339.402 4.332-2.934 7.952-9.251 8.538-5.74.533-9.289-1.492-10.824-5.373-.006-.014-.01-.028-.014-.042-.074-.245-.138-.443-.156-.642-.102-1.092.717-1.972 1.738-2.288.244-.072.488-.14.686-.159 1.03-.096 2.026.285 2.447 1.287.449 1.08 1.084 1.87 1.994 2.346.94.493 2.158.655 3.724.51 1.589-.148 2.872-.605 3.73-1.29.778-.622 1.188-1.436 1.103-2.354-.176-1.887-1.343-2.724-4.91-3.092zm55.23-11.723c-1.05-.236-1.837-.956-1.927-1.927-.02-.211.008-.427.041-.642l.007-.033c.324-1.456 1.377-2.894 2.352-3.814 1.447-1.347 3.375-2.31 6.982-2.644 3.002-.279 5.292.135 6.897 1.25 1.637 1.138 2.597 3.005 2.847 5.698l1.08 11.634c.132 1.431.462 2.804.776 3.551.075.17.15.4.165.574.083.891-.608 1.82-1.99 2.06l-.422.04c-1.104.104-2.087-.221-2.404-1.19-.101-.289-.198-.66-.285-1.084-1.492 1.72-3.648 3.208-7.422 3.558-2.491.231-4.555-.302-6.056-1.459-1.513-1.167-2.466-2.972-2.684-5.324-.395-4.247 1.861-7.21 6.044-8.783 2.233-.837 4.377-1.305 8.662-1.8l-.125-1.345c-.092-.99-.362-1.746-.864-2.27-.77-.805-2.046-1.04-3.868-.872-2.828.262-4.147 1.44-4.64 3.283-.287 1.076-1.066 1.546-1.997 1.632-.399.036-.803.02-1.168-.093zm162.17-20.125l-.084-.896c-.056-.6.108-1.129.482-1.53.346-.374.89-.646 1.66-.719.72-.067 1.304.076 1.73.393.442.328.735.85.804 1.594l1.832 19.731c.473 5.095-.615 8.334-2.515 10.376-1.91 2.053-4.664 2.913-7.604 3.186-4.806.447-8.015-.903-9.909-2.927-.005-.005-.01-.01-.013-.015-.314-.363-.507-.742-.548-1.187-.065-.699.233-1.439.834-1.984a2.704 2.704 0 0 1 1.486-.668 2.09 2.09 0 0 1 1.68.578c1.637 1.58 3.475 2.254 5.912 2.028 1.99-.186 3.442-.703 4.426-1.66 1.496-1.457 1.882-3.88 1.574-7.465l-.01-.119c-1.368 2.048-3.509 3.484-6.627 3.774-6.324.587-11.22-3.867-11.91-11.304-.711-7.65 2.818-13.142 9.667-13.778 3.14-.292 5.505.818 7.132 2.592zM247.06 299.06l-.433-4.658c-.067-.722.135-1.293.53-1.708.375-.393.944-.651 1.681-.72.833-.077 1.548.151 2.021.627.326.327.546.777.6 1.352l.432 4.658 4.957-.46c.704-.065 1.24.131 1.622.494.367.348.597.867.657 1.515.058.63-.085 1.176-.392 1.584-.316.42-.808.707-1.482.77l-4.957.46 1.28 13.778c.082.891.305 1.52.702 1.9.369.352.879.46 1.501.402.96-.09 1.585-.422 2.201-.865a.29.29 0 0 1 .029-.02c.314-.194.636-.327.965-.357.838-.078 1.587.44 1.995 1.237.188.346.282.752.315 1.114.072.768-.192 1.565-.974 2.081l-.018.01c-1.24.748-2.417 1.22-4.344 1.399-1.886.176-3.557-.164-4.82-1.13-1.259-.968-2.128-2.569-2.353-4.982l-1.31-14.12-2.827.263c-.687.064-1.204-.138-1.57-.501-.347-.344-.561-.85-.62-1.474-.07-.755.118-1.404.55-1.836.297-.297.715-.502 1.278-.555l2.784-.258zm-41.645 7.62c4.037-.374 6.457 2.729 6.94 7.924.478 5.161-1.391 8.868-5.432 9.243-4.206.39-7.086-3.028-7.547-7.996-.458-4.926 1.634-8.762 6.04-9.17zm77.903 8.145c-.923 3.2-2.992 6.651-9.08 7.216-2.892.268-5.353-.368-7.315-1.71-2.918-1.996-4.737-5.574-5.161-10.141-.421-4.54.656-8.436 3.13-10.98 1.666-1.71 3.968-2.818 6.897-3.09 5.92-.55 8.639 2.51 10.022 5.23.135.265.22.59.24.81.095 1.031-.618 1.784-1.403 2.186a.663.663 0 0 1-.046.021 4.12 4.12 0 0 1-1.061.247c-.838.077-1.592-.194-2.071-1.108l-.009-.015c-.465-.966-1.018-1.812-1.838-2.374-.81-.556-1.875-.822-3.348-.686-4.162.387-6.03 4.172-5.559 9.256.487 5.242 2.964 8.42 7.206 8.026 1.518-.14 2.55-.592 3.265-1.296.72-.71 1.113-1.662 1.39-2.761.288-1.082 1.026-1.585 1.907-1.666.349-.033.701-.014 1.063.095 1.008.143 1.797.774 1.89 1.766.029.318.005.59-.12.974zm-47.617-2c-4.508.558-6.659 1.159-8.19 2.11-1.454.904-2.143 2.16-1.974 3.99.18 1.94 1.823 3.068 4.061 2.86 2.519-.233 4.482-1.666 5.611-3.382.65-.999.846-1.762.71-3.235l-.218-2.343zm54.772-14.861c1.348-2.243 3.519-3.863 7.145-4.199 2.698-.25 4.844.393 6.385 1.776 1.53 1.373 2.472 3.493 2.73 6.262l1.34 14.446c.057.598-.087 1.086-.359 1.468-.39.548-1.068.886-1.894.962-.71.067-1.314-.068-1.76-.379-.472-.326-.79-.85-.86-1.599l-1.266-13.636c-.185-1.99-.772-3.417-1.875-4.168-.72-.489-1.648-.677-2.791-.571-2.22.206-3.865 1.407-5.008 3.27-.869 1.443-1.205 2.634-1.062 4.185l1.108 11.932c.07.746-.135 1.315-.515 1.719-.368.39-.918.635-1.611.7-.887.082-1.615-.13-2.093-.595-.333-.325-.557-.779-.612-1.375l-2.817-30.343c-.054-.58.084-1.06.355-1.436.384-.533 1.06-.874 1.946-.956.69-.064 1.272.063 1.702.364.45.317.759.828.828 1.58l.984 10.593zm37.173-6.385l-.432-4.66c-.067-.72.134-1.291.53-1.706.375-.393.943-.65 1.68-.719.833-.078 1.548.15 2.02.626.328.328.547.777.6 1.352l.433 4.658 4.958-.46c.703-.066 1.24.131 1.621.494.366.348.597.867.657 1.516.059.63-.085 1.175-.391 1.584-.317.418-.808.706-1.483.769l-4.956.46 1.279 13.778c.082.891.306 1.52.703 1.9.367.352.878.46 1.5.402.96-.089 1.585-.422 2.202-.866a.736.736 0 0 1 .028-.019c.314-.195.636-.326.965-.357.839-.078 1.587.44 1.995 1.237.188.346.282.753.316 1.114.071.769-.192 1.565-.976 2.08l-.017.012c-1.24.748-2.416 1.22-4.343 1.398-1.886.176-3.559-.163-4.82-1.132-1.26-.966-2.129-2.568-2.353-4.98l-1.311-14.119-2.826.262c-.688.064-1.204-.137-1.571-.5-.346-.345-.562-.851-.619-1.475-.07-.755.117-1.403.55-1.836.296-.297.714-.502 1.278-.555l2.783-.258zm-208.305 28.608c-.741-2.747-2.677-5.483-6.293-5.146-3.63.336-5.431 2.853-5.733 6.49l11.906-1.105c.046-.004.1-.016.138-.025l-.018-.214zm233.337-31.534c-3.613.336-6.375 1.92-8.15 4.373-1.758 2.43-2.547 5.731-2.192 9.554.365 3.932 1.741 7.073 3.923 9.154 2.202 2.1 5.228 3.136 8.907 2.795 6.93-.643 10.745-6.34 10.027-14.07-.356-3.844-1.707-6.944-3.837-9.008-2.152-2.086-5.105-3.129-8.678-2.798zm63.696 14.223c-1.16 3.073-3.475 6.25-9.264 6.788-3.657.34-6.661-.699-8.845-2.773-2.163-2.056-3.525-5.146-3.88-8.97-.426-4.593.684-8.482 3.178-11.01 1.677-1.7 3.982-2.794 6.893-3.064 6.511-.605 10.662 4.113 11.65 9.913l.038.38c.085.918-.114 1.638-.51 2.15-.41.531-1.038.859-1.855.935l-14.487 1.344c.389 2.717 1.453 4.769 3.133 5.914 1.168.797 2.629 1.143 4.339.985 2.829-.263 4.267-1.826 5.017-3.997l.006-.017c.4-1.028 1.093-1.454 1.856-1.525.343-.031.697.028 1.053.095.966.19 1.769.817 1.861 1.813.032.338.002.681-.183 1.04zm-63.17-9.957c4.078-.38 6.602 2.916 7.07 7.954.494 5.329-1.393 8.997-5.76 9.402-4.123.383-6.778-2.94-7.25-8.023-.494-5.33 1.611-8.931 5.94-9.333zm68.111-10.035l-.432-4.658c-.067-.722.135-1.293.53-1.708.375-.393.943-.651 1.68-.72.833-.077 1.548.151 2.022.627.326.327.546.777.599 1.352l.432 4.658 4.958-.46c.703-.065 1.24.131 1.621.494.368.348.597.867.657 1.516.059.63-.084 1.175-.391 1.583-.315.42-.808.707-1.483.77l-4.956.46 1.279 13.778c.082.891.306 1.52.703 1.9.368.352.878.46 1.501.402.959-.09 1.584-.422 2.201-.865l.029-.02c.314-.194.635-.327.964-.357.839-.077 1.588.44 1.996 1.237.188.346.281.752.315 1.114.071.768-.192 1.565-.975 2.081l-.017.01c-1.241.748-2.417 1.22-4.344 1.399-1.886.176-3.558-.164-4.82-1.13-1.26-.968-2.129-2.569-2.353-4.982l-1.31-14.12-2.827.264c-.688.063-1.204-.139-1.57-.502-.347-.344-.561-.85-.62-1.473-.07-.756.117-1.405.55-1.837.296-.297.714-.502 1.278-.555l2.783-.258zm19.804 1.095c1.35-2.243 3.519-3.862 7.146-4.199 2.698-.25 4.844.393 6.385 1.777 1.528 1.374 2.472 3.493 2.73 6.261l1.34 14.447c.055.597-.088 1.085-.36 1.468-.39.547-1.067.886-1.893.963-.71.065-1.314-.07-1.762-.38-.47-.327-.79-.85-.859-1.6l-1.265-13.636c-.186-1.988-.772-3.417-1.876-4.167-.718-.49-1.648-.678-2.79-.57-2.22.204-3.865 1.406-5.01 3.268-.868 1.443-1.205 2.635-1.06 4.185l1.108 11.932c.068.747-.136 1.315-.516 1.72-.367.39-.917.634-1.61.7-.887.082-1.616-.13-2.094-.596-.333-.325-.556-.778-.612-1.375l-2.816-30.343c-.055-.58.083-1.058.354-1.435.384-.533 1.061-.874 1.946-.957.69-.064 1.273.063 1.702.365.451.316.759.827.828 1.58l.984 10.592zm-62.56 6.586c4.075-.378 6.772 2.886 7.213 7.64.46 4.96-1.622 8.717-5.702 9.097-3.713.344-6.654-2.536-7.124-7.606-.48-5.16 1.533-8.752 5.613-9.131zm105.063 6.07c-1.16 3.07-3.476 6.249-9.264 6.787-3.658.339-6.662-.699-8.845-2.774-2.164-2.056-3.525-5.146-3.88-8.97-.426-4.592.684-8.481 3.177-11.009 1.677-1.7 3.983-2.794 6.893-3.065 6.511-.604 10.663 4.113 11.651 9.914l.037.378c.085.92-.114 1.639-.51 2.152-.41.53-1.037.858-1.855.934l-14.486 1.345c.388 2.717 1.453 4.768 3.132 5.913 1.168.797 2.629 1.144 4.34.985 2.828-.262 4.267-1.825 5.017-3.996l.007-.018c.399-1.027 1.09-1.453 1.854-1.524.344-.032.697.028 1.053.094.967.19 1.77.818 1.861 1.814.032.338.002.68-.182 1.04zm-337.663 13.464l-1.533-9.096-.016-.165c-.119-1.28.966-2.269 2.513-2.412 1.601-.148 2.796.628 2.915 1.908l.014.165.168 9.222c.02.491-.11.879-.335 1.179-.324.431-.864.69-1.534.753-.67.062-1.249-.094-1.647-.458-.276-.254-.476-.61-.545-1.096zm351.287-34.736c.35-.075.66-.105.973-.134.671-.062 1.174-.021 1.81.054.64.028 1.097.242 1.412.561.32.323.502.767.552 1.3.022.236.004.525-.018.825-.11 1.156-.824 2.161-1.96 2.267-.17.016-.34.024-.516-.011-.568-.068-1.102-.14-1.929-.064-1.67.195-2.866 1.182-3.728 2.526-.92 1.373-1.383 2.904-1.268 4.572l1.09 11.761c.056.598-.086 1.085-.354 1.466-.388.55-1.057.887-1.856.961-.887.083-1.616-.13-2.094-.594-.333-.325-.556-.779-.611-1.375l-1.927-20.755c-.054-.58.084-1.058.355-1.436.384-.532 1.06-.874 1.946-.955 1.36-.127 2.484.52 2.615 1.935l.052.549c1.049-1.622 2.835-3.11 5.456-3.453zm12.704 17.432c-1.943.18-3.314 1.664-3.12 3.757.195 2.093 1.815 3.3 3.759 3.12 1.843-.172 3.313-1.665 3.118-3.759-.194-2.092-1.913-3.29-3.757-3.118zm-98.82.306c-.74-2.748-2.676-5.483-6.292-5.147-3.63.336-5.431 2.854-5.733 6.49l11.906-1.104c.046-.004.1-.017.137-.026l-.017-.213zm96.29-3.64l-2.623-21.763v-.013c-.137-1.467.883-2.562 2.613-2.722 1.689-.157 2.9.737 2.985 2.215l1.43 21.883c.062 1.287-.91 2.026-2.024 2.13-1.172.11-2.257-.45-2.381-1.73zm-29.04-2.604c-.743-2.747-2.679-5.481-6.295-5.146-3.63.337-5.431 2.854-5.733 6.492l11.906-1.106c.047-.005.101-.016.138-.025l-.017-.215z" fill="#fc6062"/></svg>