<svg viewBox="0 0 1660 2982" xmlns="http://www.w3.org/2000/svg" fill-rule="evenodd" clip-rule="evenodd" stroke-linejoin="round" stroke-miterlimit="2"><g transform="translate(-172.664 -249.852)"><path fill="none" d="M172.664 249.852h1660v2981.02h-1660z"/><clipPath id="a"><path d="M172.664 249.852h1660v2981.02h-1660z"/></clipPath><g clip-path="url(#a)"><path d="M1578.125 3231.731H428.533c-131.342 0-238.193-106.85-238.193-238.193V488.898c0-131.342 106.851-238.193 238.193-238.193h1149.592c131.338 0 238.193 106.851 238.193 238.193v2504.64c0 131.342-106.855 238.193-238.193 238.193z" fill="#030404" fill-rule="nonzero"/><path d="M1219.965 319.697H786.693c-5.793 0-10.533-4.74-10.533-10.533v-.413c0-5.793 4.74-10.533 10.533-10.533h433.272c5.793 0 10.533 4.74 10.533 10.533v.413c0 5.793-4.74 10.533-10.533 10.533z" fill="#333" fill-rule="nonzero"/><path d="M1574.767 345.76H431.89c-80.573 0-146.497 65.923-146.497 146.496v2505.638c0 80.574 65.924 146.493 146.497 146.493h1142.876c80.573 0 146.497-65.92 146.497-146.493V492.256c0-80.573-65.924-146.497-146.497-146.497z" fill="#f0f1f1" fill-rule="nonzero"/><path d="M1574.767 3144.387H431.89c-80.573 0-146.497-65.92-146.497-146.493V492.256c0-80.573 65.924-146.497 146.497-146.497h1142.876c80.573 0 146.497 65.924 146.497 146.497v2505.638c0 80.574-65.924 146.493-146.497 146.493z" fill="#eff0eb"/><path d="M428.533 270.836c-120.24 0-218.062 97.822-218.062 218.062v2504.64c0 120.24 97.822 218.067 218.062 218.067h1149.592c120.24 0 218.062-97.827 218.062-218.067V488.898c0-120.24-97.822-218.062-218.062-218.062H428.533zm1149.592 2960.895H428.533c-131.342 0-238.193-106.85-238.193-238.193V488.898c0-131.342 106.851-238.193 238.193-238.193h1149.592c131.342 0 238.193 106.851 238.193 238.193v2504.64c0 131.342-106.851 238.193-238.193 238.193z" fill="#b4b3b4" fill-rule="nonzero"/><path fill="#030404" fill-rule="nonzero" d="M1389.058 422.734h9.585v13.42h-9.585zM1446.568 395.892h9.585v40.261h-9.585zM1427.398 404.841h9.585v31.312h-9.585zM1408.228 413.786h9.585v22.367h-9.585zM1512.066 429.442a6.71 6.71 0 1 1-13.419 0 6.707 6.707 0 0 1 6.712-6.708c3.703 0 6.707 3 6.707 6.708z"/><path d="M1494.168 423.008l-4.466-5.013c.287-.253 7.062-6.223 15.657-6.223 8.59 0 15.37 5.97 15.652 6.223l-4.466 5c-.047-.037-5.195-4.512-11.186-4.512-5.996 0-11.144 4.475-11.19 4.525zM1485.359 411.692l-4.749-4.744c.346-.35 8.713-8.595 24.749-8.595 16.03 0 24.398 8.245 24.744 8.595l-4.761 4.731c-.261-.257-6.889-6.615-19.983-6.615-13.1 0-19.722 6.358-20 6.628zM1563.51 405.958h67.094v22.367h-67.095z" fill="#030404" fill-rule="nonzero"/><path d="M1636.195 433.916h-80.514v-33.55h80.514v33.55zm10.066-25.721h-7.828v-10.066h-84.99v38.024h84.99v-10.065h7.828v-17.893zM1820.691 1377.209h-4.213v-370.762h4.213c6.948 0 12.64 5.688 12.64 12.64v345.482c0 6.952-5.692 12.64-12.64 12.64zM185.971 1225.534h4.213v231.725h-4.213c-6.952 0-12.644-5.687-12.644-12.64v-206.446c0-6.952 5.692-12.64 12.644-12.64zM185.971 926.397h4.213v231.725h-4.213c-6.952 0-12.644-5.687-12.644-12.64V939.037c0-6.951 5.692-12.64 12.644-12.64z" fill="#030404" fill-rule="nonzero"/><path d="M474.67 418.605l-2.287.04c-1.507.062-2.376-1.191-2.376-2.638 0-1.393.862-2.658 2.374-2.598l2.254.084h.322c1.913 0 3.474-.477 4.549-1.391 1.032-.878 1.589-2.157 1.589-3.74 0-2.94-2.273-4.583-5.802-4.583-3.335 0-5.076 1.357-5.976 3.755a.503.503 0 0 1-.017.04c-.48 1.08-1.321 1.497-2.281 1.497-.407 0-.816-.095-1.172-.197l-.02-.006c-1.141-.36-1.868-1.188-1.868-2.27 0-.353.06-.705.232-1.058 1.35-3.357 4.332-6.663 11.27-6.663 6.663 0 11.082 3.662 11.082 9.192 0 2.27-.58 4.133-1.71 5.57-.68.869-1.565 1.587-2.66 2.14 1.428.517 2.56 1.292 3.415 2.3 1.3 1.533 1.963 3.622 1.963 6.244 0 5.934-4.603 10.116-12.426 10.116-6.734 0-10.454-2.904-12.07-6.958a2.383 2.383 0 0 1-.23-1.058c0-1.12.769-2.05 2.056-2.401a3.882 3.882 0 0 1 1.046-.155c1.048 0 1.882.496 2.406 1.66l.012.029c.988 2.468 2.954 3.897 6.864 3.897 3.935 0 6.81-2.02 6.81-5.466 0-1.39-.382-2.528-1.138-3.387-1.186-1.347-3.234-1.995-5.966-1.995h-.245zm-38.976 0l-2.287.04c-1.507.062-2.376-1.191-2.376-2.638 0-1.393.862-2.658 2.374-2.598l2.254.084h.322c1.913 0 3.474-.477 4.549-1.391 1.032-.878 1.589-2.157 1.589-3.74 0-2.94-2.273-4.583-5.802-4.583-3.335 0-5.076 1.357-5.976 3.755a.503.503 0 0 1-.017.04c-.48 1.08-1.321 1.497-2.281 1.497-.407 0-.816-.095-1.172-.197l-.02-.006c-1.141-.36-1.868-1.188-1.868-2.27 0-.353.06-.705.232-1.058 1.35-3.357 4.332-6.663 11.27-6.663 6.663 0 11.082 3.662 11.082 9.192 0 2.27-.58 4.133-1.71 5.57-.68.869-1.565 1.587-2.66 2.14 1.428.517 2.56 1.292 3.415 2.3 1.3 1.533 1.963 3.622 1.963 6.244 0 5.934-4.603 10.116-12.426 10.116-6.734 0-10.454-2.904-12.07-6.958a2.383 2.383 0 0 1-.23-1.058c0-1.12.769-2.05 2.056-2.401a3.882 3.882 0 0 1 1.046-.155c1.048 0 1.882.496 2.406 1.66l.012.029c.988 2.468 2.954 3.897 6.864 3.897 3.935 0 6.81-2.02 6.81-5.466 0-1.39-.382-2.528-1.138-3.387-1.186-1.347-3.234-1.995-5.966-1.995h-.245zm-28.051-13.692l-3.936.125h-.108c-1.53 0-2.598-1.227-2.598-2.64 0-1.507 1.005-2.707 2.57-2.765l5.386-.126h.396c1.678 0 2.72.359 3.369 1.102.622.714.909 1.857.909 3.638v27.174c0 .69-.215 1.235-.558 1.644-.494.588-1.282.912-2.208.912-.791 0-1.447-.224-1.913-.62-.5-.423-.811-1.047-.811-1.894v-26.04c0-.178-.034-.398-.048-.48a2.045 2.045 0 0 0-.294-.03h-.156zm100.096-.126h-15.562c-.798 0-1.405-.31-1.82-.792-.39-.455-.61-1.084-.61-1.806 0-1.49.88-2.64 2.43-2.64h19.362c1.047 0 1.777.292 2.259.767.494.487.759 1.193.759 2.125 0 1.71-.583 2.439-1.531 3.719-4.651 6.354-8.255 15.245-10.456 25.42-.194.888-.58 1.47-1.072 1.845-.496.377-1.118.552-1.845.552l-.153-.001c-1.625-.058-2.823-.962-2.823-2.471 0-.224.05-.504.102-.71 2.055-9.184 6.023-18.483 10.96-26.008zm-51.724 21.894c-2.065 0-3.648 1.488-3.648 3.606 0 2.217 1.589 3.69 3.648 3.69s3.648-1.473 3.648-3.69c0-2.118-1.583-3.606-3.648-3.606zm0-18.018c-2.065 0-3.648 1.488-3.648 3.606 0 2.217 1.589 3.69 3.648 3.69s3.648-1.473 3.648-3.69c0-2.118-1.583-3.606-3.648-3.606z" fill-rule="nonzero"/><path fill="#dbdbdb" d="M1180.454 1300.832h460.002v6h-460.002zM1081.453 1739.851h559v6h-559zM368.665 1300.832h460.002v6H368.665z"/><g><path fill="#dbdbdb" d="M368.664 1739.851h559v6h-559z"/></g><g><path d="M855.787 582.144c-.157 3.684-.44 7.42-.85 11.206-1.161 10.761-3.06 21.66-5.698 32.699-2.635 11.025-5.916 22.081-9.845 33.17a469.655 469.655 0 0 1-12.63 31.92c3.459 11.818 7.477 21.017 12.087 27.581 4.337 6.178 9.068 9.179 14.363 8.716 3.576-.313 6.876-2.058 9.938-5.164 3.288-3.335 6.239-7.198 8.855-11.587 2.647-4.441 4.924-8.925 6.83-13.448 1.924-4.57 3.41-8.236 4.463-11.021.445-1.126 1.094-2.059 1.939-2.807.119-.623.25-1.244.391-1.86 1.27-5.523 3.245-10.41 5.914-14.663 2.701-4.303 5.971-7.793 9.805-10.474 3.904-2.731 8.175-4.297 12.813-4.701 3.498-.307 6.73.033 9.699 1.002 2.989.975 5.555 2.396 7.706 4.252 2.141 1.845 3.874 3.942 5.202 6.287 1.36 2.4 2.143 4.855 2.361 7.356.205 2.338.1 4.542-.308 6.612-.41 2.07-1.002 3.916-1.77 5.536-.816 1.72-1.812 3.105-2.969 4.173-1.326 1.222-2.72 1.857-4.141 1.982-2.182.19-4-.391-5.471-1.686-1.46-1.285-2.291-2.94-2.469-4.978-.098-1.113.078-2.105.491-2.983a30.12 30.12 0 0 1 1.083-2.069c.326-.572.593-1.267.815-2.08.221-.812.257-1.84.148-3.083-.14-1.617-1.075-2.98-2.692-4.159-1.756-1.28-3.897-1.778-6.409-1.559-2.44.213-4.7 1.17-6.793 2.846-2.204 1.765-4.059 4.036-5.574 6.805-1.555 2.84-2.71 6.122-3.476 9.842-.77 3.743-.976 7.653-.62 11.727.34 3.892 1.137 7.554 2.393 10.984 1.235 3.37 2.897 6.306 4.996 8.802a20.668 20.668 0 0 0 7.463 5.63c2.915 1.306 6.29 1.771 10.117 1.437 5.093-.445 9.73-1.772 13.907-3.99 4.235-2.249 8.045-4.966 11.428-8.152 3.4-3.202 6.344-6.63 8.833-10.284 2.518-3.698 4.641-7.166 6.366-10.402 1.714-3.215 3.028-6.003 3.94-8.37.89-2.305 1.412-3.745 1.55-4.326l.026-.095c.08-.262.173-.514.28-.757a17105.93 17105.93 0 0 1-2.162-25.378c-1.432-16.944-2.561-32.721-3.39-47.33-.83-14.629-1.242-27.9-1.236-39.811.006-11.985.69-22.273 2.044-30.865 1.383-8.773 3.546-15.633 6.44-20.595 3.123-5.356 7.403-8.222 12.776-8.692 4.559-.398 8.516.537 11.881 2.758 3.268 2.156 6.043 5.223 8.304 9.22 2.185 3.865 3.926 8.434 5.208 13.712 1.262 5.191 2.148 10.692 2.656 16.504 1.026 11.75.963 23.37-.19 34.86a254.41 254.41 0 0 1-5.684 33.753 291.231 291.231 0 0 1-9.768 32.432 536.286 536.286 0 0 1-12.236 30.539l2.223 25.44.008.067c.645-1.602 1.329-3.253 2.051-4.956a388.413 388.413 0 0 1 5.638-12.626c2.024-4.332 4.2-8.652 6.526-12.959a149.467 149.467 0 0 1 7.389-12.28c2.707-3.916 5.544-6.804 8.482-8.69 3.038-1.952 5.97-3.028 8.777-3.273 2.87-.25 5.43.125 7.683 1.096 2.264.975 4.174 2.4 5.734 4.274 1.505 1.808 2.722 3.962 3.642 6.468.897 2.445 1.476 5.126 1.732 8.046.202 2.319.25 5.438.135 9.358-.11 3.775.013 7.701.369 11.778.202 2.309.522 4.583.96 6.822.422 2.157 1.005 4.068 1.757 5.73.673 1.487 1.58 2.669 2.742 3.529 1.073.794 2.425 1.079 4.033.938 2.096-.183 4.135-.97 6.127-2.331 2.14-1.463 4.192-3.346 6.164-5.644a66.992 66.992 0 0 0 5.722-7.775 105.442 105.442 0 0 0 1.869-3.06c.31-1.105.64-2.2.991-3.285 2.482-7.667 5.923-14.735 10.319-21.206 4.4-6.476 9.696-12.248 15.892-17.313 6.169-5.044 13.206-9.3 21.117-12.757 1.034-.452 2.177-.666 3.436-.6 1.748.09 3.356.756 4.79 2.081 1.543 1.428 2.31 3.263 2.192 5.548-.076 1.448-.56 2.781-1.48 3.987a7.652 7.652 0 0 1-3.265 2.48l-4.042 1.742c-2.118.91-4.653 2.35-7.614 4.302-3.04 2.003-6.308 4.59-9.812 7.75-3.32 2.993-6.42 6.663-9.316 11.003a7.18 7.18 0 0 1-.26.968c-.323.815-.94 2.494-1.849 5.034-.936 2.611-2.237 5.66-3.905 9.145a126.093 126.093 0 0 1-3.773 7.24c-1.175 4.787-1.904 10.04-2.2 15.754-.38 7.363.058 13.897 1.341 19.6 1.267 5.635 3.073 10.604 5.436 14.903 2.333 4.242 5.067 7.888 8.215 10.929 3.192 3.084 6.506 5.68 9.947 7.783 3.456 2.11 6.915 3.824 10.38 5.135 3.497 1.325 6.724 2.335 9.683 3.026 2.941.686 5.441 1.153 7.503 1.393 2.055.24 3.415.381 4.081.415 8.304.428 16.308-.465 24.009-2.686 7.62-2.198 14.548-5.844 20.79-10.936 6.287-5.13 11.687-11.806 16.226-20.005 3.84-6.936 6.794-15.055 8.885-24.348a83.298 83.298 0 0 1-9.427 2.268c-5.245.945-10.699 1.275-16.36.983-7.731-.399-15.192-1.79-22.382-4.173-7.307-2.42-13.703-5.842-19.198-10.25-5.575-4.473-9.97-9.921-13.184-16.346-3.237-6.473-4.672-13.91-4.238-22.32.351-6.81 1.878-12.853 4.54-18.14 2.678-5.318 6.176-9.786 10.483-13.417 4.305-3.628 9.207-6.314 14.71-8.05 5.45-1.72 11.112-2.432 16.987-2.129 4.736.244 9.462 1.043 14.178 2.4a57.199 57.199 0 0 1 13.575 5.903c4.303 2.57 8.28 5.738 11.925 9.504 3.659 3.78 6.801 8.241 9.417 13.39 2.583 5.086 4.532 10.819 5.828 17.207 1.13 5.564 1.615 11.674 1.443 18.334a77.081 77.081 0 0 0 5.851-4.752c.23-.207.447-.407.652-.601.538-6.622 2.477-12.652 5.796-18.095 3.47-5.685 8.056-10.74 13.774-15.152 5.602-4.322 12.082-8 19.446-11.023 7.24-2.972 14.936-5.365 23.088-7.175 8.11-1.802 16.478-3.035 25.101-3.7 8.61-.663 17.049-.781 25.315-.354 10.363.534 19.357 1.631 26.978 3.278 7.7 1.665 14.254 3.64 19.677 5.912 5.592 2.34 10.133 4.924 13.648 7.717 3.532 2.812 6.352 5.557 8.501 8.26 5.18 6.738 7.548 14.232 7.128 22.473-.138 2.698-.542 5.267-1.213 7.706-.476 1.785-1.43 3.133-2.771 4.098-1.39.999-2.893 1.433-4.493 1.35-2.279-.118-4.04-1.002-5.358-2.529-1.333-1.547-1.923-3.293-1.826-5.217a18.33 18.33 0 0 1 .582-3.76c.202-.777.323-1.544.363-2.301.219-4.35-.92-8.32-3.418-11.912-2.675-3.839-6.594-7.119-11.717-9.903-5.406-2.939-12.04-5.302-19.895-7.122-8.017-1.857-16.994-3.037-26.933-3.55a180.359 180.359 0 0 0-23.133.308c-7.782.597-15.277 1.656-22.487 3.18-7.152 1.51-13.87 3.52-20.152 6.033-6.17 2.468-11.578 5.404-16.218 8.824-4.503 3.317-8.11 7.064-10.801 11.257-2.585 4.027-3.999 8.507-4.252 13.437-.189 3.64.408 6.895 1.846 9.752 1.486 2.952 3.601 5.56 6.328 7.833 2.882 2.403 6.324 4.5 10.314 6.307 4.144 1.875 8.657 3.497 13.538 4.867a176.933 176.933 0 0 0 15.53 3.593 371.88 371.88 0 0 0 16.454 2.675l16.12 2.202c8.062 1.122 15.277 2.235 21.644 3.34 6.484 1.126 12.173 2.429 17.078 3.91 8.655 2.662 14.918 6.25 18.902 10.582 4.242 4.622 6.262 10.564 5.882 17.882-.355 6.846-2.57 12.762-6.618 17.761-3.895 4.816-9.066 8.787-15.54 11.874-6.246 2.982-13.47 5.119-21.687 6.383-8.073 1.244-16.68 1.634-25.82 1.162-9.89-.51-18.544-1.628-25.964-3.34-7.427-1.713-13.625-3.512-18.598-5.386-5.08-1.915-8.935-3.651-11.574-5.182-2.457-1.427-3.888-2.289-4.307-2.565l.123.084c-2.307-1.442-3.445-3.585-3.296-6.488.116-2.241 1.036-3.995 2.689-5.297 1.584-1.247 3.278-1.77 5.046-1.68a6.98 6.98 0 0 1 3.62 1.2c.51.274 1.684.946 3.517 2.027 2.164 1.277 5.423 2.712 9.767 4.334 4.466 1.668 10.016 3.25 16.647 4.756 6.64 1.507 14.405 2.484 23.294 2.942 8.774.452 16.564.148 23.37-.934 6.635-1.053 12.256-2.688 16.863-4.943 4.33-2.122 7.676-4.67 9.996-7.71 2.173-2.852 3.353-6 3.53-9.453.098-1.878-.112-3.525-.718-4.927a10.684 10.684 0 0 0-2.586-3.673c-1.245-1.164-2.756-2.168-4.525-3.031-1.94-.948-4.065-1.772-6.417-2.49a86.454 86.454 0 0 0-8.153-2.144 181.02 181.02 0 0 0-9.169-1.714c-3.18-.512-6.378-.991-9.597-1.436-3.246-.448-6.44-.894-9.566-1.336l-16.105-2.2c-12.88-1.732-24.077-3.972-33.592-6.707-9.72-2.795-17.75-6.175-24.099-10.107-6.655-4.121-11.528-8.927-14.682-14.355a31.608 31.608 0 0 1-1.878-3.796 107.416 107.416 0 0 1-5.414 3.647 86.845 86.845 0 0 1-5.226 3.054c-2.01 13.428-5.562 25.09-10.619 34.999-5.328 10.438-11.89 19.03-19.661 25.795-7.82 6.809-16.614 11.744-26.375 14.81-9.692 3.044-19.893 4.295-30.605 3.743-5.831-.301-11.685-1.223-17.561-2.768a76.73 76.73 0 0 1-16.9-6.656c-5.377-2.893-10.35-6.464-14.921-10.716-4.604-4.283-8.542-9.308-11.806-15.08-3.242-5.73-5.697-12.191-7.353-19.386-1.25-5.432-1.9-11.33-1.94-17.692a44.735 44.735 0 0 1-2.79 1.978c-3.673 2.394-7.622 3.773-11.844 4.142-4.942.432-9-.314-12.191-2.146-3.173-1.822-5.728-4.264-7.664-7.324-1.883-2.976-3.282-6.36-4.189-10.154a74.427 74.427 0 0 1-1.786-10.832 80.686 80.686 0 0 1-.282-5.84c-.029-2.052-.03-4.08-.006-6.086.026-1.982.036-3.84.034-5.572-.004-1.683-.054-3.097-.154-4.242-.222-2.542-.586-4.272-1.362-5.112-.518-.562-1.042-.893-1.644-.84-1.268.11-2.583 1.073-4.078 2.68-1.8 1.935-3.645 4.43-5.54 7.477-1.934 3.109-3.834 6.583-5.704 10.422a527.879 527.879 0 0 0-5.458 11.553 253.965 253.965 0 0 0-4.682 10.855 1679.786 1679.786 0 0 0-3.423 8.568c-1.85 4.677-3.907 7.855-6.066 9.602-2.318 1.877-4.476 2.843-6.424 3.014-3.669.32-6.598-.903-8.804-3.631-2.036-2.52-3.245-5.682-3.58-9.506l-.787-9.007a128.22 128.22 0 0 1-4.382 6.393c-3.09 4.239-6.711 8.193-10.867 11.863-4.172 3.683-8.925 6.832-14.262 9.443-5.377 2.63-11.33 4.235-17.863 4.807-5.892.515-11.203-.101-15.937-1.823a33.267 33.267 0 0 1-12.476-8.016c-3.53-3.582-6.352-7.924-8.459-13.03a48.89 48.89 0 0 1-1.089-2.904 118.716 118.716 0 0 1-4.761 8.046c-2.338 3.625-4.935 6.914-7.79 9.87-2.89 2.99-6.032 5.484-9.42 7.485-3.48 2.054-7.272 3.261-11.376 3.62-6.348.555-11.964-.938-16.855-4.454-4.73-3.401-8.905-8.03-12.511-13.9-2.531-4.12-4.806-8.69-6.82-13.708-.318.687-.65 1.393-.997 2.116-1.66 3.468-3.631 7.114-5.915 10.938a69.56 69.56 0 0 1-7.923 10.78c-3.002 3.351-6.308 6.188-9.916 8.511-3.718 2.395-7.738 3.78-12.058 4.158-6.18.54-11.543-.994-16.096-4.57-3.588-2.815-6.507-6.337-8.75-10.57-2.685 4.772-5.906 8.753-9.651 11.95-4.65 3.967-9.468 6.137-14.427 6.57-3.905.342-7.502-.071-10.794-1.219-3.315-1.157-6.202-2.942-8.663-5.352-2.43-2.379-4.403-5.245-5.912-8.603a28.723 28.723 0 0 1-.562-1.336 82.477 82.477 0 0 1-6.53 8.722 63.407 63.407 0 0 1-15.403 13.066c-5.88 3.557-12.555 5.67-20.03 6.323a50.163 50.163 0 0 1-15.993-1.148c-5.293-1.248-10.052-3.5-14.281-6.75-1.568-1.03-2.933-2.158-4.099-3.38-1.11-1.164-2.024-2.276-2.742-3.332a2.503 2.503 0 0 1-.6-.914 6.894 6.894 0 0 1-.785-1.381 3923.94 3923.94 0 0 1 2.719 39.562c.923 14.563 1.51 28.109 1.758 40.638.25 12.556.071 23.95-.531 34.185-.609 10.323-1.9 19.218-3.865 26.689-2.013 7.655-4.814 13.637-8.355 17.97-3.712 4.541-8.518 7.071-14.42 7.587-1.824.16-3.95-.021-6.377-.566-2.501-.562-4.92-1.916-7.229-4.11-2.197-2.088-4.186-5.163-5.922-9.253-1.681-3.96-2.839-9.352-3.436-16.18-.74-8.478-.556-18.392.562-29.744 1.112-11.291 3.033-23.329 5.764-36.111 2.726-12.761 6.143-25.907 10.249-39.436a460.816 460.816 0 0 1 13.892-39.324c-.288-3.324-.55-6.604-.785-9.84a633.888 633.888 0 0 0-.498-6.429c-.869.465-1.82.74-2.851.83-2.223.194-4.048-.463-5.493-1.918-1.392-1.402-2.145-2.995-2.3-4.76-.075-.873.02-1.825.306-2.856l.026-.085c1.864-5.545 3.22-10.777 4.061-15.695.847-4.942 1.43-9.272 1.743-12.988.31-3.667.425-6.564.337-8.691-.09-2.131-.137-3.246-.145-3.342-.169-1.934.385-3.677 1.68-5.22 1.285-1.53 2.948-2.393 4.996-2.571 1.926-.17 3.654.356 5.183 1.58 1.542 1.233 2.416 2.879 2.597 4.948l3.437 39.329c1.05-2.173 2.105-4.331 3.16-6.476 1.983-4.034 4.13-7.674 6.436-10.924 2.364-3.33 4.99-6.08 7.872-8.26 3.005-2.27 6.445-3.58 10.324-3.919 3.66-.32 7.072.256 10.236 1.714 3.117 1.438 5.869 3.544 8.25 6.328 2.335 2.731 4.231 6.05 5.674 9.96 1.417 3.843 2.325 8.012 2.719 12.512.82 9.377-.185 17.522-2.97 24.441-2.022 5.026-4.526 9.255-7.497 12.695 3.806-.821 7.292-2.282 10.455-4.388 4.411-2.935 8.304-6.55 11.683-10.838 3.42-4.341 6.412-9.108 8.978-14.301 2.597-5.255 4.865-10.333 6.802-15.233.515-1.432 1.346-2.572 2.475-3.43.074-.057.15-.112.225-.165 2.001-4.714 4.528-8.84 7.574-12.379 3.85-4.474 8.23-7.956 13.131-10.454 4.921-2.507 9.754-3.958 14.495-4.373 3.248-.283 6.274-.094 9.075.559 2.751.64 5.121 1.394 7.114 2.257 2.044.885 3.63 1.737 4.764 2.542 1.126.8 1.744 1.252 1.858 1.347.036.03.07.061.104.095 1.517 1.505 2.316 3.152 2.468 4.902.168 1.915-.372 3.674-1.648 5.265-1.296 1.614-2.923 2.493-4.867 2.663-2.049.178-3.836-.382-5.368-1.668-.19-.159-.615-.446-1.267-.873-.663-.433-1.551-.862-2.66-1.3-1.145-.453-2.49-.816-4.035-1.095-1.534-.277-3.255-.327-5.163-.16-2.864.25-5.854 1.175-8.976 2.751-3.132 1.583-5.92 3.865-8.37 6.836-2.487 3.014-4.457 6.7-5.926 11.048-1.474 4.362-1.942 9.424-1.44 15.183a26.724 26.724 0 0 0 1.027 5.313c.504 1.691 1.256 3.205 2.262 4.541.963 1.278 2.203 2.273 3.713 2.992 1.52.725 3.348.966 5.476.78 1.558-.136 3.296-.846 5.24-2.063 2.05-1.282 3.946-3.16 5.709-5.614 1.825-2.54 3.4-5.68 4.74-9.415 1.349-3.76 2.132-8.145 2.366-13.163.1-1.813.794-3.39 2.095-4.728 1.29-1.327 2.883-2.08 4.786-2.246 1.84-.161 3.52.399 5.027 1.724 1.447 1.272 2.295 2.795 2.581 4.581.26 1.853.685 4.457 1.275 7.811a47.056 47.056 0 0 0 2.785 9.621c1.24 3.045 2.923 5.638 5.057 7.77 1.941 1.94 4.474 2.735 7.572 2.464 2.096-.183 4.116-.944 6.07-2.259 2.095-1.41 4.105-3.217 6.037-5.415 1.976-2.25 3.83-4.777 5.564-7.583a103.417 103.417 0 0 0 4.756-8.561 110.453 110.453 0 0 0 3.685-8.255 356.477 356.477 0 0 0 2.653-6.887c.496-1.405 1.292-2.531 2.374-3.389a214.78 214.78 0 0 1-2.084-8.777c-1.682-7.804-3.022-15.412-4.02-22.825-.995-7.4-1.745-13.973-2.246-19.72-.728-8.321-1.21-16.964-1.444-25.928-.176-6.754-.16-13.41.048-19.971-14.835.823-25.048.012-25.064.01a7.58 7.58 0 0 1-6.95-8.152 7.58 7.58 0 0 1 8.152-6.951s10.165.809 24.717-.107a243.752 243.752 0 0 1 1.835-15.922c1.178-7.869 2.793-14.817 4.837-20.844 2.09-6.163 4.687-11.124 7.759-14.897 3.28-4.03 7.231-6.216 11.82-6.617 3.57-.312 6.861.254 9.875 1.68 3.007 1.423 5.67 3.915 7.944 7.523 2.152 3.416 4 7.934 5.523 13.567 1.491 5.519 2.596 12.333 3.304 20.442.109 1.247.203 2.502.28 3.76 16.493-6.864 31.499-17.729 39.377-35.27a7.58 7.58 0 0 1 10.014-3.809 7.58 7.58 0 0 1 3.808 10.015c-10.439 23.243-30.949 37.185-53.07 45.262zM613.13 771.829a452.736 452.736 0 0 0-7.479 25.586c-2.928 11.248-5.302 22.051-7.12 32.41-1.816 10.344-3.074 19.996-3.774 28.957-.696 8.905-.758 16.673-.178 23.304.142 1.627.393 3.388.751 5.285.344 1.816.856 3.48 1.542 4.99.633 1.392 1.448 2.539 2.463 3.43.846.743 1.915 1.026 3.184.915 2.737-.24 4.832-2.3 6.522-5.916 1.954-4.182 3.413-9.728 4.405-16.629 1.012-7.046 1.664-15.096 1.958-24.15.296-9.095.333-18.588.113-28.48a845.1 845.1 0 0 0-1.198-29.89c-.396-6.871-.792-13.476-1.189-19.812zm27.989-31.15c.75.624 1.62 1.17 2.612 1.645.877.42 1.849.573 2.91.48 2.182-.19 4.299-1.054 6.366-2.553 2.164-1.57 4.04-3.722 5.643-6.44 1.65-2.795 2.89-6.128 3.736-9.99.855-3.901 1.073-8.178.667-12.83-.294-3.366-.887-6.214-1.796-8.538-.88-2.247-1.891-4.057-3.058-5.413-1.094-1.272-2.207-2.194-3.365-2.733-1.046-.488-2.022-.716-2.94-.636-2.285.2-4.433 1.67-6.553 4.243-2.405 2.919-4.718 6.557-6.95 10.911-2.272 4.435-4.48 9.308-6.627 14.618a525.252 525.252 0 0 1-6.463 15.304l.12 1.61a7.594 7.594 0 0 1 1.047-2.353c.226-.48.514-.775.767-.953l.022-.024c1.181-1.266 2.546-2.013 4.073-2.276.046-.008.092-.013.139-.017l.444-.04c.596-.052 1.069-.018 1.422.056.18.013.345.05.494.103.418.019.892.117 1.418.325.05.02.101.043.15.069.12.034.237.081.348.142a9.626 9.626 0 0 1 2.98 2.532 18.05 18.05 0 0 0 2.394 2.758zm-6.265-5.495a1.597 1.597 0 0 1-.064.005l.064-.005zm580.618-35.412c.223-2.01.385-4.022.49-6.038.487-9.448-.444-17.606-2.858-24.468-2.373-6.743-5.603-12.33-9.735-16.738-4.09-4.363-8.765-7.643-14.036-9.828-5.34-2.214-10.728-3.467-16.167-3.747-4.068-.21-7.933.253-11.594 1.403-3.593 1.128-6.783 2.869-9.564 5.228-2.773 2.353-5.006 5.318-6.718 8.879-1.749 3.637-2.724 7.844-2.97 12.61-.235 4.558.507 8.992 2.22 13.301 1.722 4.33 4.417 8.223 8.064 11.696 3.732 3.553 8.47 6.453 14.192 8.738 5.854 2.338 12.746 3.691 20.669 4.1 5.366.276 10.517-.118 15.454-1.192a71.887 71.887 0 0 0 12.553-3.944zM840.898 586.699c-8.435 2.13-16.788 3.545-24.541 4.473a434.18 434.18 0 0 0-.033 21.668c.19 8.398.644 16.724 1.366 24.978a358.197 358.197 0 0 0 2.025 18.083c.51 3.675 1.052 7.246 1.624 10.715a340.206 340.206 0 0 0 7.36-20.938 312.908 312.908 0 0 0 7.484-28.099c2.041-9.413 3.524-18.728 4.447-27.944.099-.984.188-1.962.268-2.936zm141.544 62.383a533.458 533.458 0 0 0 6.395-20.054c2.634-8.877 4.78-17.686 6.436-26.428a223.198 223.198 0 0 0 3.39-26.425c.604-8.868.491-18.043-.337-27.526-.137-1.563-.428-4.05-.874-7.457a63.653 63.653 0 0 0-2.193-10.127c-.995-3.302-2.32-6.155-3.99-8.55-1.371-1.97-3.109-2.907-5.26-2.72-1.652.145-2.836 1.53-3.845 3.852-1.278 2.942-2.266 6.87-2.988 11.779-.741 5.031-1.215 10.85-1.424 17.459-.21 6.653-.24 13.685-.086 21.099.152 7.425.446 15.036.879 22.833.434 7.807.923 15.386 1.466 22.737.543 7.352 1.095 14.232 1.654 20.639l.777 8.889zm-141.09-78.187c-.069-2.475-.208-4.907-.416-7.298-.994-11.37-2.582-19.44-4.843-24.194-1.907-4.013-3.939-6.162-6.541-5.934-1.634.142-2.973 1.564-4.293 3.953-1.617 2.926-3.016 6.846-4.22 11.753-1.232 5.022-2.239 10.909-3.024 17.66-.34 2.911-.63 5.908-.871 8.99 7.707-1.027 15.964-2.589 24.208-4.93z" fill="#fc6062" fill-rule="nonzero"/></g><g><path d="M761.813 785.773c1.266-2.095 3.24-3.502 6.409-3.796 2.468-.23 4.574.307 6.257 1.492 2.494 1.755 4.073 4.956 4.476 9.294.674 7.263-2.608 12.381-8.688 12.946-3.007.279-5.212-.689-6.83-2.446l.033.327.799 8.606c.059.64-.126 1.155-.485 1.531-.34.357-.853.592-1.51.653-.675.063-1.23-.073-1.634-.358-.43-.304-.707-.777-.767-1.419l-2.534-27.301c-.062-.667.127-1.183.494-1.553.344-.348.864-.573 1.54-.636.733-.067 1.374.11 1.8.508.3.281.506.675.554 1.194l.066.705.02.253zm-95.367 27.179c.051.545.248.96.543 1.258.426.431 1.082.63 1.901.554.652-.061 1.175-.284 1.525-.64.37-.375.569-.9.505-1.587l-2.581-27.81c-.064-.688-.357-1.168-.79-1.469-.41-.284-.964-.408-1.616-.347-.819.076-1.426.392-1.767.894-.235.348-.352.79-.3 1.337l2.58 27.81zm27.447-5.595c-1.065 2.82-3.19 5.737-8.503 6.23-3.357.312-6.115-.64-8.118-2.545-1.986-1.888-3.235-4.723-3.561-8.233-.392-4.215.627-7.785 2.916-10.104 1.539-1.561 3.655-2.565 6.326-2.814 5.977-.554 9.787 3.776 10.694 9.1l.034.347c.078.844-.105 1.504-.469 1.975-.375.487-.951.788-1.701.857l-13.297 1.234c.357 2.494 1.334 4.377 2.875 5.428 1.072.731 2.413 1.05 3.983.905 2.597-.242 3.917-1.677 4.605-3.669l.006-.016c.367-.943 1.002-1.334 1.703-1.4.315-.028.64.026.966.088.887.173 1.624.75 1.708 1.664.03.31.002.625-.167.953zm4.534-18.35l-.396-4.275c-.062-.662.124-1.186.486-1.567.344-.36.866-.597 1.543-.66.764-.072 1.42.138 1.855.575.299.3.5.713.55 1.24l.397 4.276 4.55-.422c.645-.06 1.138.12 1.488.453.337.32.548.796.603 1.392.054.577-.077 1.078-.36 1.453-.289.385-.74.648-1.36.706l-4.55.422 1.175 12.646c.075.818.28 1.395.645 1.744.338.323.806.422 1.378.369.88-.082 1.454-.387 2.02-.794a.44.44 0 0 1 .026-.018c.288-.179.583-.3.886-.328.77-.071 1.456.404 1.83 1.135.174.318.26.691.29 1.023.066.705-.176 1.437-.894 1.91l-.017.01c-1.138.686-2.218 1.12-3.986 1.283-1.731.161-3.266-.15-4.424-1.038-1.156-.888-1.954-2.357-2.16-4.572l-1.202-12.959-2.594.24c-.632.06-1.106-.125-1.443-.459-.316-.316-.514-.78-.568-1.353-.064-.692.108-1.288.505-1.685.273-.273.656-.46 1.173-.51l2.554-.236zm34.79 9.954l-2.269-.224c-3.087-.31-5.123-1.035-6.346-2.38-.837-.922-1.31-2.136-1.459-3.739-.35-3.785 2.59-6.736 7.956-7.235 4.587-.426 7.68 1.29 8.994 4.211.005.012.01.024.013.036.067.189.129.379.147.571.088.95-.653 1.713-1.528 2.047l-.032.01c-.22.066-.484.133-.708.154-.908.084-1.834-.272-2.171-1.197-.602-1.532-2.242-2.141-4.237-1.957-2.806.261-4.103 1.412-3.967 2.867.055.601.18 1.063.51 1.416.546.582 1.57.862 3.42 1.082l2.47.283c3.257.368 5.365 1.042 6.628 2.421.863.942 1.35 2.218 1.513 3.982.37 3.976-2.692 7.299-8.49 7.837-5.268.489-8.526-1.37-9.935-4.932-.005-.013-.01-.026-.013-.039-.067-.225-.126-.406-.143-.589-.093-1.002.658-1.81 1.596-2.1.223-.066.447-.129.63-.145.944-.089 1.858.261 2.245 1.18.411.992.995 1.717 1.83 2.154.863.452 1.98.6 3.418.467 1.458-.135 2.636-.554 3.424-1.184.714-.57 1.09-1.317 1.012-2.16-.161-1.731-1.233-2.5-4.508-2.837zm50.692-10.76c-.964-.217-1.686-.878-1.768-1.77a2.415 2.415 0 0 1 .037-.588l.006-.03c.298-1.337 1.264-2.657 2.16-3.501 1.328-1.237 3.097-2.12 6.408-2.427 2.755-.256 4.856.124 6.33 1.148 1.502 1.044 2.383 2.758 2.613 5.229l.99 10.678c.122 1.314.425 2.574.713 3.26.069.156.138.366.152.526.076.818-.559 1.67-1.826 1.892l-.389.037c-1.013.094-1.915-.204-2.206-1.094a8.057 8.057 0 0 1-.261-.995c-1.37 1.58-3.349 2.945-6.813 3.266-2.286.212-4.18-.277-5.557-1.339-1.39-1.07-2.264-2.728-2.464-4.887-.363-3.898 1.708-6.617 5.547-8.06 2.05-.769 4.017-1.199 7.95-1.653l-.115-1.234c-.084-.91-.332-1.603-.792-2.084-.708-.739-1.878-.955-3.55-.8-2.597.24-3.807 1.322-4.26 3.013-.262.988-.977 1.419-1.832 1.498-.366.034-.738.018-1.073-.086zm148.843-18.471l-.076-.823c-.051-.55.1-1.036.442-1.405.318-.343.817-.593 1.523-.659.662-.061 1.198.07 1.59.36.405.301.673.78.737 1.463l1.681 18.11c.434 4.676-.564 7.65-2.308 9.523-1.753 1.885-4.28 2.674-6.979 2.925-4.411.41-7.357-.83-9.095-2.687l-.012-.014c-.288-.333-.465-.68-.503-1.089-.06-.641.214-1.32.765-1.82a2.482 2.482 0 0 1 1.364-.614 1.918 1.918 0 0 1 1.543.53c1.502 1.451 3.189 2.07 5.425 1.862 1.827-.17 3.16-.645 4.062-1.524 1.374-1.337 1.729-3.562 1.446-6.851l-.01-.11c-1.255 1.88-3.22 3.198-6.082 3.464-5.804.539-10.299-3.55-10.932-10.375-.652-7.02 2.587-12.062 8.873-12.646 2.881-.267 5.053.75 6.546 2.38zm-126.448 9.264l-.397-4.276c-.062-.662.124-1.186.486-1.567.345-.36.866-.597 1.543-.66.764-.072 1.42.138 1.855.575.3.3.5.713.55 1.24l.397 4.276 4.55-.423c.646-.059 1.138.121 1.488.454.337.32.548.796.603 1.391.054.578-.078 1.079-.36 1.454-.29.385-.74.648-1.36.706l-4.55.422 1.175 12.646c.075.818.28 1.395.645 1.744.338.323.806.422 1.378.369.88-.082 1.454-.387 2.02-.794a.266.266 0 0 1 .026-.018c.288-.179.584-.3.886-.328.77-.072 1.457.404 1.831 1.135.173.318.259.691.29 1.023.065.705-.177 1.437-.895 1.91l-.016.01c-1.14.686-2.219 1.12-3.987 1.283-1.731.161-3.265-.15-4.424-1.038-1.156-.888-1.954-2.357-2.16-4.572l-1.202-12.959-2.595.24c-.63.06-1.105-.125-1.441-.459-.318-.316-.515-.78-.569-1.353-.064-.692.108-1.288.505-1.685.272-.273.656-.46 1.173-.51l2.555-.236zm-38.223 6.994c3.705-.343 5.927 2.504 6.37 7.273.439 4.737-1.277 8.139-4.986 8.483-3.86.358-6.503-2.78-6.927-7.339-.42-4.52 1.5-8.042 5.543-8.417zm71.501 7.475c-.847 2.938-2.745 6.105-8.333 6.624-2.654.246-4.914-.338-6.714-1.57-2.678-1.832-4.348-5.116-4.737-9.308-.387-4.166.602-7.743 2.873-10.077 1.53-1.57 3.642-2.587 6.33-2.837 5.433-.504 7.929 2.305 9.198 4.801.124.243.202.541.22.743.088.947-.567 1.638-1.287 2.007a.609.609 0 0 1-.043.02 3.78 3.78 0 0 1-.973.226c-.769.07-1.461-.179-1.901-1.017l-.008-.014c-.427-.887-.935-1.664-1.687-2.18-.743-.51-1.72-.754-3.073-.628-3.82.354-5.535 3.829-5.102 8.494.447 4.812 2.72 7.73 6.614 7.367 1.393-.129 2.34-.543 2.996-1.19.66-.65 1.022-1.524 1.276-2.534.265-.993.942-1.454 1.75-1.529.32-.03.644-.013.976.088.925.13 1.65.71 1.734 1.62.027.293.005.541-.109.894zm-43.704-1.835c-4.137.512-6.111 1.063-7.517 1.937-1.334.829-1.967 1.982-1.812 3.661.165 1.782 1.674 2.816 3.728 2.626 2.312-.215 4.113-1.53 5.15-3.104.597-.917.777-1.618.651-2.97l-.2-2.15zm50.271-13.64c1.238-2.059 3.23-3.545 6.559-3.854 2.476-.23 4.446.36 5.86 1.63 1.404 1.26 2.27 3.206 2.505 5.747l1.231 13.26c.051.548-.08.996-.33 1.347-.359.503-.98.813-1.739.883-.652.061-1.206-.063-1.616-.348-.432-.3-.724-.78-.788-1.467l-1.162-12.516c-.17-1.827-.709-3.136-1.721-3.826-.66-.448-1.512-.621-2.562-.524-2.038.19-3.547 1.291-4.596 3.001-.797 1.325-1.107 2.418-.975 3.841l1.017 10.952c.064.685-.124 1.207-.473 1.578-.338.358-.842.583-1.479.642-.813.075-1.482-.12-1.92-.546-.306-.298-.512-.714-.562-1.262l-2.586-27.85c-.049-.532.077-.972.326-1.317.353-.49.974-.802 1.786-.878.634-.059 1.168.058 1.562.335.414.29.697.759.76 1.449l.903 9.723zm34.12-5.86l-.398-4.277c-.061-.66.123-1.185.486-1.566.345-.36.867-.597 1.544-.66.763-.072 1.42.138 1.854.575.3.3.501.713.55 1.24l.397 4.276 4.55-.423c.646-.06 1.138.121 1.489.453.336.32.547.797.603 1.392.053.578-.079 1.08-.36 1.454-.29.384-.741.648-1.36.706l-4.55.422 1.174 12.646c.076.818.281 1.395.646 1.743.337.324.806.423 1.377.37.88-.082 1.455-.387 2.02-.795a.676.676 0 0 1 .027-.017c.288-.18.583-.3.885-.328.77-.072 1.457.404 1.83 1.135.173.318.26.691.291 1.023.065.705-.176 1.436-.896 1.91l-.015.01c-1.139.686-2.218 1.12-3.987 1.283-1.73.161-3.266-.15-4.423-1.039-1.156-.887-1.954-2.357-2.16-4.57l-1.204-12.96-2.593.241c-.631.059-1.105-.126-1.442-.46-.318-.316-.515-.78-.568-1.353-.064-.693.108-1.288.505-1.685.272-.273.655-.46 1.173-.51l2.554-.236zM689.08 798.385c-.68-2.522-2.457-5.032-5.776-4.724-3.331.31-4.985 2.62-5.262 5.958l10.928-1.014a.94.94 0 0 0 .126-.024l-.016-.196zm214.163-28.943c-3.316.309-5.851 1.762-7.48 4.013-1.614 2.232-2.338 5.261-2.012 8.77.335 3.609 1.598 6.492 3.6 8.401 2.022 1.928 4.799 2.88 8.176 2.566 6.36-.59 9.862-5.819 9.203-12.914-.327-3.528-1.567-6.373-3.522-8.267-1.975-1.915-4.686-2.872-7.965-2.569zm58.462 13.055c-1.064 2.82-3.19 5.736-8.503 6.23-3.356.312-6.114-.642-8.118-2.546-1.986-1.887-3.235-4.723-3.56-8.233-.392-4.215.627-7.785 2.916-10.104 1.539-1.561 3.654-2.565 6.326-2.813 5.976-.555 9.787 3.775 10.694 9.099l.034.348c.078.843-.105 1.504-.469 1.974-.376.487-.952.788-1.702.857l-13.296 1.234c.356 2.494 1.333 4.377 2.875 5.428 1.072.731 2.413 1.05 3.983.905 2.596-.242 3.917-1.677 4.604-3.669l.006-.016c.368-.943 1.003-1.334 1.703-1.4.315-.028.64.026.967.088.887.173 1.623.75 1.708 1.664.03.31.002.625-.168.954zm-57.98-9.14c3.743-.348 6.06 2.677 6.49 7.301.454 4.891-1.279 8.257-5.288 8.63-3.783.35-6.22-2.699-6.653-7.364-.454-4.892 1.479-8.198 5.451-8.567zm62.515-9.21l-.397-4.276c-.061-.662.124-1.186.487-1.567.344-.36.866-.597 1.543-.66.764-.071 1.42.138 1.855.575.299.3.5.713.55 1.24l.396 4.276 4.55-.422c.646-.06 1.138.12 1.489.453.337.32.548.796.603 1.392.053.577-.078 1.078-.36 1.453-.289.385-.741.648-1.36.706l-4.55.422 1.174 12.646c.076.818.281 1.395.646 1.744.338.323.806.423 1.377.369.88-.082 1.455-.387 2.02-.794l.027-.018c.288-.178.583-.3.885-.328.77-.07 1.457.404 1.832 1.135.172.318.258.691.29 1.023.064.705-.177 1.437-.896 1.91l-.016.01c-1.139.686-2.218 1.12-3.987 1.283-1.73.161-3.265-.15-4.423-1.038-1.156-.887-1.954-2.357-2.16-4.571l-1.203-12.96-2.594.242c-.631.058-1.105-.127-1.442-.46-.318-.316-.514-.781-.568-1.353-.064-.693.108-1.289.505-1.686.272-.272.655-.46 1.173-.51l2.554-.236zm18.176 1.006c1.24-2.06 3.23-3.546 6.56-3.854 2.476-.23 4.445.36 5.86 1.63 1.403 1.261 2.269 3.206 2.505 5.747l1.23 13.26c.051.548-.08.996-.33 1.347-.358.502-.98.813-1.738.884-.652.06-1.206-.064-1.616-.348-.433-.301-.725-.78-.79-1.469l-1.16-12.516c-.17-1.825-.709-3.136-1.722-3.824-.66-.45-1.512-.623-2.561-.524-2.038.188-3.547 1.29-4.597 3-.797 1.324-1.107 2.418-.975 3.84l1.018 10.952c.063.686-.125 1.207-.474 1.578-.337.359-.841.583-1.478.643-.813.076-1.483-.12-1.921-.546-.306-.299-.511-.715-.562-1.262l-2.585-27.85c-.05-.533.076-.971.325-1.318.353-.488.975-.802 1.786-.877.634-.06 1.168.057 1.562.334.415.29.697.76.76 1.45l.903 9.723zm-57.419 6.044c3.74-.347 6.216 2.649 6.62 7.012.423 4.553-1.488 8.001-5.233 8.35-3.408.316-6.107-2.328-6.539-6.981-.44-4.736 1.407-8.033 5.152-8.381zm96.43 5.57c-1.065 2.82-3.19 5.736-8.503 6.23-3.357.312-6.114-.64-8.118-2.546-1.986-1.887-3.235-4.723-3.561-8.232-.39-4.215.627-7.785 2.916-10.104 1.54-1.561 3.656-2.565 6.327-2.814 5.976-.554 9.786 3.775 10.693 9.1l.034.347c.078.843-.104 1.503-.468 1.975-.376.486-.952.787-1.702.857l-13.297 1.234c.357 2.494 1.335 4.376 2.875 5.427 1.073.731 2.413 1.05 3.983.905 2.597-.241 3.917-1.676 4.606-3.668l.006-.017c.366-.942 1.001-1.333 1.702-1.399.315-.029.64.026.966.087.888.174 1.624.75 1.709 1.665.029.31.001.624-.168.954zM713.51 789.127l-1.406-8.349-.015-.152c-.11-1.175.886-2.081 2.307-2.213 1.469-.136 2.566.576 2.674 1.751l.014.151.154 8.465c.018.45-.101.806-.308 1.082-.297.396-.793.634-1.407.691-.616.057-1.147-.086-1.512-.42-.254-.233-.437-.56-.5-1.006zm322.422-31.882c.321-.069.606-.096.892-.123.617-.057 1.078-.02 1.663.05.587.026 1.005.221 1.295.515.293.296.461.704.507 1.192.02.217.003.483-.017.758-.102 1.061-.756 1.984-1.798 2.081a1.618 1.618 0 0 1-.474-.01c-.521-.063-1.012-.128-1.771-.059-1.532.18-2.63 1.085-3.422 2.319-.843 1.26-1.27 2.665-1.164 4.196l1.002 10.795c.05.548-.08.995-.326 1.345-.356.505-.97.814-1.704.882-.813.076-1.483-.119-1.921-.545-.306-.299-.511-.715-.561-1.263l-1.77-19.049c-.048-.533.078-.971.327-1.318.353-.488.973-.802 1.786-.877 1.248-.116 2.28.478 2.4 1.776l.048.504c.962-1.489 2.602-2.854 5.008-3.169zm11.66 16c-1.784.165-3.042 1.527-2.864 3.448.18 1.92 1.666 3.029 3.45 2.863 1.691-.157 3.041-1.528 2.862-3.45-.178-1.92-1.756-3.019-3.448-2.861zm-90.7.28c-.68-2.521-2.456-5.032-5.775-4.723-3.332.308-4.985 2.619-5.262 5.957l10.928-1.014a.94.94 0 0 0 .126-.024l-.016-.196zm88.377-3.34l-2.406-19.975-.002-.012c-.125-1.347.812-2.351 2.399-2.498 1.55-.145 2.663.676 2.74 2.033l1.312 20.085c.058 1.181-.834 1.86-1.857 1.955-1.076.1-2.071-.414-2.186-1.588zm-26.654-2.39c-.681-2.522-2.458-5.031-5.777-4.724-3.331.31-4.985 2.62-5.261 5.959l10.927-1.015a.923.923 0 0 0 .126-.023l-.015-.197z" fill="#fc6062"/></g><g><path d="M759.664 1019.852h-125c-6.623 0-12 5.377-12 12v61c0 6.623 5.377 12 12 12h125v-85z" fill="#363636"/></g><g><path d="M1175.663 1019.852h-187c-6.623 0-12 5.377-12 12v61c0 6.623 5.377 12 12 12h187v-85z" fill="#363636"/></g><g><path d="M759.663 1019.852h163c6.622 0 12 5.377 12 12v61c0 6.623-5.378 12-12 12h-163v-85z" fill="#48c774"/></g><g><path d="M1175.178 1019.852h194c6.623 0 12 5.377 12 12v61c0 6.623-5.377 12-12 12h-194v-85z" fill="#ffdd57"/></g><g><path d="M367.657 1430.848c0-6.623 5.377-11.998 12-11.998h1248c6.622 0 11.999 5.375 11.999 11.998v187c0 6.622-5.377 12-12 12h-1248c-6.622 0-11.999-5.378-11.999-12v-187z" fill="#fc6062"/></g><g><path d="M367.657 1867.848c0-6.623 5.377-11.998 12-11.998h1248c6.622 0 11.999 5.375 11.999 11.998v187c0 6.622-5.377 12-12 12h-1248c-6.622 0-11.999-5.378-11.999-12v-187z" fill="#8a4d76"/></g><g><text x="495.448" y="904.372" font-family="'HiraMaruPro-W4','Hiragino Maru Gothic Pro',sans-serif" font-size="8.812" fill="#fff" transform="translate(-3638.48 -6450.28) scale(8.85109)">S<tspan x="501.229px 504.648px 509.565px 513.24px 516.659px 519.462px 524.379px 527.181px 531.764px 536.69px 540.365px 545.08px 550.006px" y="904.372px 904.372px 904.372px 904.372px 904.372px 904.372px 904.372px 904.372px 904.372px 904.372px 904.372px 904.372px 904.372px">tart a server</tspan></text></g><g><text x="482.855" y="904.372" font-family="'HiraMaruPro-W4','Hiragino Maru Gothic Pro',sans-serif" font-size="8.812" fill="#fff" transform="translate(-3638.48 -6013.28) scale(8.85109)">C<tspan x="489.261px 494.443px 499.598px 504.754px 509.68px 514.43px 517.849px 520.651px 524.071px 529.252px 532.055px 536.972px 539.774px 544.357px 549.283px 552.958px 557.673px 562.599px" y="904.372px 904.372px 904.372px 904.372px 904.372px 904.372px 904.372px 904.372px 904.372px 904.372px 904.372px 904.372px 904.372px 904.372px 904.372px 904.372px 904.372px 904.372px">onnect to a server</tspan></text></g><g><text x="495.861" y="904.372" font-family="'HiraMaruPro-W4','Hiragino Maru Gothic Pro',sans-serif" font-size="8.761" fill="#fff" transform="translate(-1553.33 -2948.81) scale(4.4518)">jack</text></g><g><text x="495.861" y="904.372" font-family="'HiraMaruPro-W4','Hiragino Maru Gothic Pro',sans-serif" font-size="8.761" fill="#fff" transform="translate(-1201.7 -2948.81) scale(4.4518)">j<tspan x="498.182px 503.062px 507.775px 512.33px 515.721px 519.365px 521.275px" y="904.372px 904.372px 904.372px 904.372px 904.372px 904.372px 904.372px">acktrip</tspan></text></g><g><text x="495.861" y="904.372" font-family="'HiraMaruPro-W4','Hiragino Maru Gothic Pro',sans-serif" font-size="8.761" fill="#fff" transform="translate(-1416.96 -2948.81) scale(4.4518)">active</text></g><g><text x="495.861" y="904.372" font-family="'HiraMaruPro-W4','Hiragino Maru Gothic Pro',sans-serif" font-size="8.761" fill="#4c421a" transform="translate(-999.323 -2948.81) scale(4.4518)">in<tspan x="503.009px 507.95px 512.725px 516.176px 518.147px" y="904.372px 904.372px 904.372px 904.372px 904.372px">activ</tspan>e</text></g><g><text x="494.827" y="904.372" font-family="'HiraMaruPro-W4','Hiragino Maru Gothic Pro',sans-serif" font-size="8.761" fill="#757763" transform="translate(-1331.9 -2714.35) scale(4.4518)">L<tspan x="500.215px 505.751px 511.542px 513.951px 519.698px 522.484px 527.863px 533.338px 538.603px 544.972px 551.788px" y="904.372px 904.372px 904.372px 904.372px 904.372px 904.372px 904.372px 904.372px 904.372px 904.372px 904.372px">ET&apos;S PATCH!</tspan></text></g><g><text x="518.016" y="904.372" font-family="'HiraMaruPro-W4','Hiragino Maru Gothic Pro',sans-serif" font-size="8.761" fill="#757763" transform="translate(-1331.9 -2272.6) scale(4.4518)">O<tspan x="524.937" y="904.372">R</tspan></text></g></g></g></svg>